<svg width="92" height="16" viewBox="0 0 92 16" fill="none" xmlns="http://www.w3.org/2000/svg">
<path fill-rule="evenodd" clip-rule="evenodd" d="M85.794 4.19069L83.9386 0.505409C83.7994 0.227695 83.5285 0.0373325 83.2176 0.000248949H83.1059C83.0971 4.57552e-05 83.0883 -3.26854e-05 83.0795 1.23418e-05C82.7471 -0.00170184 82.4377 0.175257 82.273 0.463817L80.46 4.20383C80.4156 4.29402 80.3568 4.37486 80.287 4.44396C80.1477 4.57734 79.9678 4.66582 79.771 4.69337L75.6035 5.29413C75.4001 5.31803 75.2117 5.4095 75.0684 5.55371L75.0442 5.57761C74.874 5.75236 74.7902 5.97777 74.7917 6.20252C74.7901 6.43813 74.8815 6.674 75.065 6.85159L78.0861 9.74253C78.2949 9.94227 78.3953 10.2274 78.3583 10.5113L78.3557 10.5262L77.6122 14.5947C77.5943 14.7089 77.5981 14.8248 77.6227 14.9366C77.6405 15.0198 77.67 15.1006 77.7109 15.1765C77.7344 15.2162 77.7605 15.2537 77.7887 15.2888C77.9728 15.5216 78.2534 15.6503 78.5417 15.6495C78.682 15.65 78.8244 15.62 78.959 15.5566L81.6439 14.1703L82.7033 13.6247C82.7311 13.6109 82.7594 13.5984 82.7881 13.5873C82.8934 13.5478 83.0049 13.5256 83.1184 13.5221V13.5218C83.2767 13.518 83.4358 13.5523 83.581 13.6247L87.2985 15.5391C87.4819 15.6314 87.6902 15.6652 87.8936 15.633C88.3871 15.5399 88.7163 15.0768 88.6371 14.5856L87.8936 10.518C87.8403 10.2254 87.9403 9.92627 88.1612 9.72437L91.181 6.83103C91.3252 6.69094 91.4194 6.50799 91.4485 6.31022C91.4844 6.07206 91.421 5.82978 91.2735 5.63859C91.1243 5.44493 90.9034 5.31803 90.66 5.28424L86.4925 4.68431C86.1916 4.64311 85.9307 4.45769 85.794 4.19069ZM58.9386 0.505409L60.794 4.19069C60.9307 4.45769 61.1916 4.64311 61.4925 4.68431L65.66 5.28424C65.9034 5.31803 66.1243 5.44493 66.2735 5.63859C66.421 5.82978 66.4844 6.07206 66.4486 6.31022C66.4194 6.50799 66.3252 6.69094 66.181 6.83103L63.1612 9.72437C62.9403 9.92627 62.8403 10.2254 62.8936 10.518L63.6371 14.5856C63.7163 15.0768 63.3871 15.5399 62.8936 15.633C62.6902 15.6652 62.4819 15.6314 62.2985 15.5391L58.581 13.6247C58.4358 13.5523 58.2767 13.518 58.1184 13.5218V13.5221C58.0049 13.5256 57.8934 13.5478 57.7881 13.5873C57.7594 13.5984 57.7311 13.6109 57.7033 13.6247L56.6444 14.1701L53.959 15.5566C53.8244 15.62 53.6821 15.65 53.5417 15.6495C53.2536 15.6503 52.973 15.5217 52.7889 15.2891C52.7606 15.2539 52.7345 15.2164 52.7109 15.1765C52.6699 15.1005 52.6404 15.0195 52.6226 14.9362C52.5981 14.8245 52.5944 14.7088 52.6122 14.5947L53.3557 10.5262L53.3583 10.5113C53.3953 10.2274 53.2949 9.94227 53.0861 9.74253L50.065 6.85159C49.8815 6.674 49.7901 6.43812 49.7917 6.20251C49.7902 5.97776 49.874 5.75235 50.0442 5.57761L50.0684 5.55371C50.2117 5.4095 50.4001 5.31803 50.6035 5.29413L54.771 4.69337C54.9678 4.66582 55.1477 4.57732 55.287 4.44391C55.3568 4.37482 55.4156 4.294 55.46 4.20383L57.273 0.463817C57.4377 0.175257 57.7471 -0.00170248 58.0795 1.2351e-05C58.0883 -3.26961e-05 58.0971 4.57414e-05 58.1059 0.000248949H58.2176C58.5285 0.0373325 58.7994 0.227695 58.9386 0.505409ZM33.9386 0.505409L35.794 4.19069C35.9307 4.45769 36.1916 4.64311 36.4925 4.68431L40.66 5.28424C40.9034 5.31803 41.1243 5.44493 41.2735 5.63859C41.421 5.82978 41.4844 6.07206 41.4486 6.31022C41.4194 6.50799 41.3252 6.69094 41.181 6.83103L38.1612 9.72437C37.9403 9.92627 37.8403 10.2254 37.8936 10.518L38.6371 14.5856C38.7163 15.0768 38.3871 15.5399 37.8936 15.633C37.6902 15.6652 37.4819 15.6314 37.2985 15.5391L33.581 13.6247C33.4358 13.5523 33.2767 13.518 33.1184 13.5218V13.5221C33.0049 13.5256 32.8934 13.5478 32.7881 13.5873C32.7594 13.5984 32.7311 13.6109 32.7033 13.6247L31.6444 14.1701L28.959 15.5566C28.8244 15.62 28.6821 15.65 28.5417 15.6495C28.2536 15.6503 27.973 15.5217 27.7888 15.289C27.7606 15.2539 27.7345 15.2163 27.7109 15.1765C27.6699 15.1004 27.6404 15.0195 27.6226 14.9361C27.5981 14.8245 27.5944 14.7088 27.6122 14.5947L28.3557 10.5262L28.3583 10.5113C28.3953 10.2273 28.2949 9.94225 28.0861 9.74253L25.065 6.85159C24.8815 6.67402 24.7901 6.43817 24.7917 6.20258C24.7902 5.97781 24.874 5.75237 25.0442 5.57761L25.0684 5.55371C25.2117 5.4095 25.4001 5.31803 25.6035 5.29413L29.771 4.69337C29.9678 4.66582 30.1477 4.57732 30.287 4.44391C30.3568 4.37482 30.4156 4.294 30.46 4.20383L32.273 0.463817C32.4377 0.175257 32.7471 -0.00170248 33.0795 1.2351e-05C33.0883 -3.26961e-05 33.0971 4.57414e-05 33.1059 0.000248949H33.2176C33.5285 0.0373325 33.7994 0.227695 33.9386 0.505409ZM10.2903 0.505409L12.3776 4.19069C12.5314 4.45769 12.8249 4.64311 13.1634 4.68431L17.8519 5.28424C18.1257 5.31803 18.3742 5.44493 18.5421 5.63859C18.708 5.82978 18.7793 6.07206 18.739 6.31022C18.7062 6.50799 18.6002 6.69094 18.438 6.83103L15.0407 9.72437C14.7922 9.92627 14.6797 10.2254 14.7397 10.518L15.5761 14.5856C15.6652 15.0768 15.2948 15.5399 14.7397 15.633C14.5109 15.6652 14.2765 15.6314 14.0702 15.5391L9.88801 13.6247C9.72463 13.5523 9.54566 13.518 9.36751 13.5218C9.36751 13.5219 9.36751 13.522 9.36751 13.5221C9.23953 13.5256 9.11387 13.5479 8.99512 13.5876C8.96313 13.5986 8.93159 13.611 8.90061 13.6247L7.70947 14.17L4.68818 15.5566C4.53684 15.62 4.37667 15.65 4.21878 15.6495C3.8946 15.6503 3.57896 15.5217 3.3718 15.289C3.33999 15.2539 3.31064 15.2163 3.28409 15.1765C3.23805 15.1005 3.20477 15.0195 3.18481 14.9362C3.15716 14.8246 3.15303 14.7088 3.17313 14.5947L4.00956 10.5262C4.01058 10.5212 4.01155 10.5163 4.01247 10.5113C4.05404 10.2273 3.94115 9.94226 3.70625 9.74253L0.307441 6.85159C0.101032 6.67403 -0.00173137 6.43822 2.41113e-05 6.20265C-0.00173331 5.97786 0.092577 5.75239 0.284072 5.57761L0.311266 5.55371C0.47255 5.4095 0.684471 5.31803 0.91327 5.29413L5.60178 4.69337C5.82312 4.66582 6.02551 4.57732 6.18226 4.44392C6.26078 4.37483 6.32687 4.294 6.37682 4.20383L8.41648 0.463817C8.6018 0.175257 8.94981 -0.00170221 9.32374 1.23817e-05C9.33365 -3.27318e-05 9.34357 4.56952e-05 9.35352 0.000248949H9.47917C9.82893 0.0373325 10.1337 0.227695 10.2903 0.505409Z" fill="#FAC412"/>
</svg>
