<svg width="44" height="44" viewBox="0 0 44 44" fill="none" xmlns="http://www.w3.org/2000/svg">
<path fill-rule="evenodd" clip-rule="evenodd" d="M22 0C9.84977 0 0 9.73546 0 21.7447C0 33.7539 9.84977 43.4894 22 43.4894C34.1502 43.4894 44 33.7539 44 21.7447C43.9863 9.74108 34.1446 0.0135904 22 0ZM22 42.0397C10.6597 42.0397 1.46667 32.9534 1.46667 21.7447C1.46667 10.536 10.6597 1.44965 22 1.44965C33.3403 1.44965 42.5333 10.536 42.5333 21.7447C42.5204 32.948 33.3349 42.027 22 42.0397ZM30.6872 13.1258L31.158 14.6574C31.5542 15.949 31.6373 17.3147 31.4008 18.6439C31.1853 19.7619 30.4677 20.7228 29.4501 21.2554L29.9803 32.9555C30.0406 33.59 29.8276 34.2202 29.3936 34.6915C29.342 34.7473 29.2879 34.8007 29.2315 34.8518C28.1874 35.7952 26.5671 35.7234 25.6126 34.6915C25.1687 34.2064 24.9553 33.5572 25.0259 32.907L25.5532 21.2569C24.5342 20.7245 23.8153 19.763 23.5996 18.6439C23.363 17.3147 23.4461 15.949 23.8423 14.6574L24.3131 13.1258C24.6495 12.1471 25.4271 11.3785 26.4173 11.046C28.1775 10.4549 30.0892 11.3861 30.6872 13.1258ZM28.4344 20.1233C29.2176 19.8553 29.7973 19.1957 29.9561 18.3917C30.1519 17.2881 30.0828 16.1545 29.7544 15.0821L29.2836 13.5498C29.091 13.0352 28.6806 12.6294 28.1598 12.4391C27.1747 12.079 26.081 12.5763 25.7167 13.5498L25.2459 15.0821C24.9172 16.1544 24.8481 17.2881 25.0442 18.3917C25.203 19.1957 25.7827 19.8553 26.5659 20.1233C26.8632 20.2337 27.0547 20.5207 27.0404 20.8343L26.4874 33.0222C26.4503 33.277 26.5292 33.535 26.703 33.7267C27.1446 34.1588 27.8557 34.1588 28.2973 33.7267C28.4628 33.5493 28.543 33.3101 28.5173 33.07L27.96 20.8343C27.9457 20.5207 28.1371 20.2337 28.4344 20.1233ZM19.0667 11.5972C19.0667 11.1969 19.395 10.8723 19.8 10.8723C20.205 10.8723 20.5333 11.1969 20.5333 11.5973V18.1207C20.5333 18.3129 20.456 18.4972 20.3185 18.6331L18.3487 20.5807L18.9743 32.9455C18.9782 33.0248 18.9782 33.1043 18.9743 33.1837C18.9077 34.5343 17.7459 35.5759 16.3795 35.5101C15.013 35.4443 13.9592 34.296 14.0257 32.9454L14.6513 20.5806L12.6815 18.633C12.544 18.4971 12.4667 18.3128 12.4667 18.1206V11.5972C12.4667 11.1969 12.795 10.8723 13.2 10.8723C13.605 10.8723 13.9333 11.1969 13.9333 11.5972V17.8205L15.9192 19.7826C16.0658 19.9274 16.1436 20.1267 16.1333 20.3313L15.4873 33.0157C15.472 33.2892 15.5723 33.5568 15.7645 33.7543L15.7709 33.7606C16.176 34.1575 16.8297 34.1546 17.2311 33.7543C17.4232 33.5568 17.5236 33.2892 17.5083 33.0157L16.8667 20.3313C16.8566 20.1266 16.9347 19.9272 17.0815 19.7826L19.0667 17.8205V11.5972ZM15.4 10.8723C14.995 10.8723 14.6667 11.1969 14.6667 11.5972V17.3958C14.6667 17.796 14.995 18.1206 15.4 18.1206C15.805 18.1206 16.1333 17.796 16.1333 17.3958V11.5972C16.1333 11.1969 15.805 10.8723 15.4 10.8723ZM16.8667 11.5972C16.8667 11.1969 17.195 10.8723 17.6 10.8723C18.005 10.8723 18.3333 11.1969 18.3333 11.5972V17.3958C18.3333 17.796 18.005 18.1206 17.6 18.1206C17.195 18.1206 16.8667 17.796 16.8667 17.3958V11.5972ZM23.5793 34.6997C23.9824 34.6608 24.3411 34.9525 24.3804 35.351C24.4197 35.7497 24.1249 36.1044 23.7218 36.1432C22.5768 36.2755 21.4201 36.2755 20.2751 36.1432C19.8727 36.0965 19.5848 35.7362 19.632 35.3383C19.6792 34.9403 20.0436 34.6556 20.446 34.7023C21.4784 34.8208 22.5214 34.8208 23.5539 34.7023L23.5509 34.703C23.5604 34.7017 23.5698 34.7006 23.5793 34.6997ZM33.2202 12.4046C32.9599 12.0979 32.4974 12.0578 32.1871 12.3151L32.184 12.3176C31.8744 12.5757 31.835 13.0328 32.096 13.3389C36.5175 18.5268 36.1793 26.1981 31.3179 30.9862C31.031 31.2688 31.0302 31.7279 31.3161 32.0114C31.602 32.295 32.0665 32.2958 32.3534 32.0133C37.756 26.6937 38.1327 18.1696 33.2202 12.4046ZM17.0845 9.58058C17.085 9.58058 17.0854 9.58159 17.0859 9.58159H17.0822C17.083 9.58159 17.0836 9.58076 17.0843 9.58061C17.0844 9.58061 17.0845 9.58061 17.0846 9.58061C17.1723 9.58015 17.2592 9.5643 17.3412 9.53358C19.827 8.61478 22.5337 8.4507 25.1145 9.06245C25.5082 9.15649 25.9045 8.91739 25.9996 8.52825C26.0948 8.13911 25.8529 7.74744 25.4592 7.65339C22.5932 6.9745 19.5875 7.15698 16.8271 8.17744C16.448 8.31833 16.2563 8.73637 16.3988 9.11101C16.5062 9.39333 16.7793 9.58022 17.0843 9.58061C17.0844 9.58059 17.0844 9.58058 17.0845 9.58058ZM8.79996 21.7447C8.79152 25.1974 10.1771 28.5106 12.6492 30.9499C12.936 31.2335 12.9358 31.6932 12.6489 31.9767C12.3619 32.2601 11.8968 32.2599 11.6101 31.9763C6.52232 26.93 5.89843 18.9777 10.1383 13.2164C10.1424 13.2106 10.1466 13.2049 10.1509 13.1992C10.3943 12.8792 10.854 12.8148 11.1778 13.0553C11.5016 13.2959 11.5667 13.7503 11.3234 14.0703C9.67675 16.2975 8.79272 18.9862 8.79996 21.7447Z" fill="#363853"/>
</svg>
