<svg width="44" height="44" viewBox="0 0 44 44" fill="none" xmlns="http://www.w3.org/2000/svg">
<g clip-path="url(#clip0_0_199)">
<g clip-path="url(#clip1_0_199)">
<path d="M15.1315 13.5668H17.2563C17.8077 13.5668 18.2562 14.0154 18.2562 14.5667V16.0316C18.2562 16.3876 18.5448 16.6762 18.9007 16.6762C19.2567 16.6762 19.5452 16.3876 19.5452 16.0316V14.5667C19.5452 13.3046 18.5184 12.2778 17.2563 12.2778H15.1315C14.5894 12.2778 14.1484 11.8368 14.1484 11.2947C14.1484 10.7526 14.5894 10.3116 15.1315 10.3116H19.843C21.0959 10.3116 22.1151 9.29232 22.1151 8.03944C22.1151 6.78655 21.0958 5.76733 19.843 5.76733H16.0738C15.7178 5.76733 15.4293 6.05591 15.4293 6.41187C15.4293 6.76782 15.7178 7.0564 16.0738 7.0564H19.843C20.3851 7.0564 20.8261 7.49743 20.8261 8.03944C20.8261 8.58153 20.385 9.02256 19.843 9.02256H15.1315C13.8786 9.02256 12.8593 10.0419 12.8593 11.2947C12.8593 12.5475 13.8786 13.5668 15.1315 13.5668V13.5668Z" fill="#363853"/>
<path d="M7.38857 17.8926H9.49713C10.0415 17.8926 10.4844 18.3355 10.4844 18.8799V20.3336C10.4844 20.6896 10.773 20.9782 11.1289 20.9782C11.4849 20.9782 11.7734 20.6896 11.7734 20.3336V18.8799C11.7734 17.6247 10.7522 16.6035 9.49713 16.6035H7.38857C6.85335 16.6035 6.41799 16.1681 6.41799 15.6329C6.41799 15.0978 6.85343 14.6624 7.38857 14.6624H9.85386C10.2098 14.6624 10.4984 14.3738 10.4984 14.0178C10.4984 13.6619 10.2098 13.3733 9.85386 13.3733H7.38857C6.14256 13.3733 5.12892 14.3869 5.12892 15.6329C5.12892 16.8789 6.14256 17.8926 7.38857 17.8926Z" fill="#363853"/>
<path d="M25.6523 26.8125C26.0083 26.8125 26.2969 26.5239 26.2969 26.168C26.2969 25.812 26.0083 25.5234 25.6523 25.5234C25.2964 25.5234 25.0078 25.812 25.0078 26.168C25.0078 26.5239 25.2964 26.8125 25.6523 26.8125Z" fill="#363853"/>
<path d="M28.832 28.2734C29.188 28.2734 29.4766 27.9849 29.4766 27.6289C29.4766 27.2729 29.188 26.9844 28.832 26.9844C28.4761 26.9844 28.1875 27.2729 28.1875 27.6289C28.1875 27.9849 28.4761 28.2734 28.832 28.2734Z" fill="#363853"/>
<path d="M30.7227 30.5078C31.0786 30.5078 31.3672 30.2192 31.3672 29.8633C31.3672 29.5073 31.0786 29.2188 30.7227 29.2188C30.3667 29.2188 30.0781 29.5073 30.0781 29.8633C30.0781 30.2192 30.3667 30.5078 30.7227 30.5078Z" fill="#363853"/>
<path d="M28.0586 25.2656C28.4146 25.2656 28.7031 24.9771 28.7031 24.6211C28.7031 24.2651 28.4146 23.9766 28.0586 23.9766C27.7026 23.9766 27.4141 24.2651 27.4141 24.6211C27.4141 24.9771 27.7026 25.2656 28.0586 25.2656Z" fill="#363853"/>
<path d="M25.9102 30.9375C26.2661 30.9375 26.5547 30.6489 26.5547 30.293C26.5547 29.937 26.2661 29.6484 25.9102 29.6484C25.5542 29.6484 25.2656 29.937 25.2656 30.293C25.2656 30.6489 25.5542 30.9375 25.9102 30.9375Z" fill="#363853"/>
<path d="M42.9114 22.8111H41.083L41.9867 20.9434C43.1331 20.7151 44 19.7015 44 18.489C44 17.2454 43.0882 16.2112 41.8981 16.0187C40.5827 13.6496 38.0131 11.8703 34.8968 11.16V11.1108C34.8968 10.7549 34.6083 10.4663 34.2523 10.4663C33.9573 10.4663 33.7091 10.6647 33.6326 10.9353C33.2401 10.8847 32.8407 10.8518 32.4363 10.8351C32.333 10.6173 32.1116 10.4663 31.8545 10.4663C31.5973 10.4663 31.376 10.6173 31.2726 10.8351C30.8681 10.8518 30.4687 10.8847 30.0762 10.9354C29.9997 10.6648 29.7516 10.4663 29.4565 10.4663C29.1005 10.4663 28.812 10.7549 28.812 11.1108V11.16C25.6958 11.8703 23.1261 13.6497 21.8108 16.0187C20.6207 16.2112 19.709 17.2454 19.709 18.489C19.709 18.5616 19.7123 18.6335 19.7184 18.7044C16.7427 18.9812 14.0692 20.2243 12.0633 22.0897H8.01359C7.73755 22.0897 7.4904 22.2135 7.32316 22.4081H5.43039C5.12033 21.6247 4.35067 21.0711 3.47342 21.0711C2.31344 21.0711 1.36976 22.0148 1.36976 23.1747C1.36976 23.2738 1.37758 23.3718 1.39124 23.4684C0.580851 23.7609 0 24.5376 0 25.4475C0 25.8515 0.114727 26.2399 0.325445 26.5723C0.114727 26.9048 0 27.2931 0 27.6971C0 28.8571 0.94368 29.8008 2.10366 29.8008C2.98091 29.8008 3.75057 29.2472 4.06063 28.4638H5.76537C5.84358 28.7511 6.0592 28.9881 6.35087 29.0872L8.37177 29.7734C8.35974 29.9816 8.35321 30.1912 8.35321 30.4023C8.35321 30.601 8.35888 30.799 8.36945 30.9962C8.05346 31.0724 7.75852 31.2032 7.49607 31.3793C7.06398 31.0895 6.54491 30.9199 5.98666 30.9199C4.48791 30.9199 3.26863 32.1391 3.26863 33.6379C3.26863 33.6608 3.27035 33.6834 3.27095 33.7062H2.51685C2.09129 33.7062 1.71411 33.9453 1.53244 34.33C1.35077 34.7149 1.40585 35.158 1.6763 35.4865L3.6098 37.836C3.81743 38.0882 4.12371 38.2328 4.45036 38.2328H31.7103C32.0663 38.2328 32.3548 37.9442 32.3548 37.5883C32.3548 37.2323 32.0663 36.9437 31.7103 36.9437H4.54498L2.94147 34.9953H42.4853L40.8818 36.9437H34.7181C34.362 36.9437 34.0735 37.2323 34.0735 37.5883C34.0735 37.9442 34.362 38.2328 34.7181 38.2328H40.9764C41.3031 38.2328 41.6095 38.0881 41.8169 37.8359L43.7504 35.4866C44.0207 35.158 44.0759 34.7149 43.8942 34.33C43.7126 33.9452 43.3354 33.7062 42.9099 33.7062H42.2716C42.905 32.6102 43.143 31.3111 42.9119 30.0347C42.8639 29.7703 42.657 29.5633 42.3925 29.5154C40.6466 29.1993 38.857 29.7581 37.6048 31.0102C37.5283 31.0867 37.4554 31.1659 37.3842 31.2463C37.0148 31.0463 36.594 30.9303 36.1474 30.9215V29.6951H36.835C37.925 29.6951 38.8117 28.8084 38.8117 27.7184V26.8532H42.9114C43.5116 26.8532 44 26.3648 44 25.7646V23.8996C44 23.2994 43.5116 22.8111 42.9114 22.8111V22.8111ZM6.29054 33.7063H4.56002C4.5589 33.6836 4.5577 33.6609 4.5577 33.638C4.5577 32.85 5.1987 32.209 5.98666 32.209C6.21079 32.209 6.42254 32.2615 6.61126 32.3541C6.40535 32.7367 6.28813 33.1738 6.28813 33.638C6.28822 33.6609 6.28994 33.6834 6.29054 33.7063ZM38.5163 31.9217C39.3595 31.0787 40.5223 30.6484 41.7005 30.7268C41.7727 31.8122 41.412 32.8848 40.6953 33.7063H39.6325L40.5131 32.8257C40.7648 32.574 40.7648 32.1659 40.5131 31.9142C40.2613 31.6625 39.8533 31.6625 39.6015 31.9142L38.6882 32.8276C38.6075 32.57 38.4893 32.3287 38.3402 32.1102C38.3969 32.0457 38.4553 31.9827 38.5163 31.9217ZM25.5032 13.9423C26.4787 13.2888 27.6054 12.7986 28.812 12.4902V13.1535C28.812 13.5094 29.1005 13.798 29.4565 13.798C29.8126 13.798 30.1011 13.5094 30.1011 13.1535V12.2346C30.4665 12.1827 30.8368 12.1483 31.2099 12.1291V13.1535C31.2099 13.5094 31.4984 13.798 31.8545 13.798C32.2105 13.798 32.499 13.5094 32.499 13.1535V12.1291C32.8721 12.1484 33.2424 12.1827 33.6077 12.2346V13.1535C33.6077 13.5094 33.8962 13.798 34.2523 13.798C34.6083 13.798 34.8968 13.5094 34.8968 13.1535V12.4902C36.1035 12.7986 37.2302 13.2888 38.2057 13.9424C39.1561 14.5791 39.9304 15.348 40.4945 16.1983C40.2768 16.2942 40.0729 16.4201 39.89 16.5734C39.4452 16.2007 38.8773 15.9862 38.2829 15.9862C37.6885 15.9862 37.1205 16.2006 36.6758 16.5734C36.231 16.2007 35.663 15.9862 35.0687 15.9862C34.4743 15.9862 33.9063 16.2006 33.4616 16.5734C33.0168 16.2007 32.4488 15.9862 31.8545 15.9862C31.26 15.9862 30.6921 16.2006 30.2473 16.5734C29.8025 16.2007 29.2346 15.9862 28.6402 15.9862C28.0458 15.9862 27.4778 16.2006 27.0331 16.5734C26.5884 16.2007 26.0204 15.9862 25.426 15.9862C24.8316 15.9862 24.2637 16.2007 23.8189 16.5734C23.6361 16.4201 23.4321 16.2942 23.2144 16.1983C23.7785 15.3479 24.5528 14.579 25.5032 13.9423V13.9423ZM22.2117 17.2752C22.642 17.2752 23.0441 17.5079 23.2612 17.8823C23.3765 18.0811 23.5889 18.2035 23.8188 18.2035C24.0486 18.2035 24.261 18.0811 24.3763 17.8824C24.5935 17.5079 24.9957 17.2752 25.4259 17.2752C25.8562 17.2752 26.2584 17.5079 26.4755 17.8823C26.5908 18.0811 26.8031 18.2035 27.033 18.2035C27.2629 18.2035 27.4752 18.0811 27.5906 17.8823C27.8077 17.5079 28.2098 17.2752 28.6401 17.2752C29.0703 17.2752 29.4725 17.5079 29.6898 17.8824C29.8051 18.0811 30.0175 18.2035 30.2472 18.2035C30.4771 18.2035 30.6895 18.0811 30.8048 17.8823C31.0219 17.5079 31.4241 17.2752 31.8544 17.2752C32.2846 17.2752 32.6868 17.5079 32.904 17.8824C33.0192 18.0811 33.2317 18.2035 33.4615 18.2035C33.6914 18.2035 33.9037 18.0811 34.019 17.8823C34.2361 17.5079 34.6383 17.2752 35.0686 17.2752C35.4988 17.2752 35.901 17.5079 36.1182 17.8824C36.2336 18.0811 36.4459 18.2035 36.6757 18.2035C36.9056 18.2035 37.118 18.0811 37.2333 17.8823C37.4504 17.5079 37.8525 17.2752 38.2828 17.2752C38.713 17.2752 39.1152 17.5079 39.3325 17.8824C39.4477 18.0811 39.6602 18.2035 39.89 18.2035C40.1198 18.2035 40.3322 18.0811 40.4475 17.8823C40.6646 17.5079 41.0668 17.2752 41.4971 17.2752C42.1663 17.2752 42.7108 17.8196 42.7108 18.4889C42.7108 19.1582 42.1663 19.7026 41.4971 19.7026C41.0668 19.7026 40.6646 19.47 40.4475 19.0956C40.3322 18.8968 40.1198 18.7743 39.89 18.7743C39.6602 18.7743 39.4477 18.8967 39.3325 19.0955C39.1152 19.47 38.713 19.7026 38.2828 19.7026C37.8525 19.7026 37.4504 19.47 37.2333 19.0956C37.118 18.8968 36.9056 18.7743 36.6757 18.7743C36.4459 18.7743 36.2335 18.8967 36.1182 19.0955C35.901 19.47 35.4988 19.7026 35.0686 19.7026C34.6383 19.7026 34.2361 19.47 34.019 19.0956C33.9037 18.8968 33.6914 18.7743 33.4615 18.7743C33.2317 18.7743 33.0192 18.8967 32.904 19.0955C32.6868 19.47 32.2846 19.7026 31.8544 19.7026C31.4241 19.7026 31.0219 19.47 30.8048 19.0956C30.6895 18.8968 30.4771 18.7743 30.2472 18.7743C30.0175 18.7743 29.805 18.8967 29.6898 19.0955C29.4725 19.47 29.0703 19.7026 28.6401 19.7026C28.2098 19.7026 27.8077 19.47 27.5906 19.0956C27.4752 18.8968 27.2629 18.7743 27.033 18.7743C26.8031 18.7743 26.5908 18.8967 26.4755 19.0956C26.3486 19.3143 26.1583 19.4842 25.9363 19.5881C24.4222 18.9849 22.7569 18.6493 21.0094 18.6459C21.0026 18.5944 20.998 18.5423 20.998 18.4889C20.998 17.8196 21.5424 17.2752 22.2117 17.2752V17.2752ZM8.39163 23.3787H10.8635C10.6095 23.695 10.3712 24.0228 10.1518 24.3625H8.39163V23.3787ZM5.7328 27.1747H3.5567C3.22145 27.1747 2.94216 27.4317 2.9144 27.7659C2.87968 28.1841 2.52355 28.5117 2.10375 28.5117C1.65455 28.5117 1.28915 28.1463 1.28915 27.6971C1.28915 27.4536 1.397 27.2246 1.58512 27.0689C1.7331 26.9465 1.81878 26.7644 1.81878 26.5723C1.81878 26.3801 1.7331 26.1981 1.58512 26.0757C1.397 25.92 1.28915 25.6911 1.28915 25.4474C1.28915 24.9983 1.65455 24.6328 2.10375 24.6328C2.52355 24.6328 2.87968 24.9604 2.9144 25.3787C2.94216 25.7128 3.22145 25.9699 3.5567 25.9699H5.73289V27.1747H5.7328ZM5.95332 24.6809H4.06063C3.82362 24.0821 3.31779 23.6185 2.70093 23.4328C2.67343 23.3506 2.65873 23.2636 2.65873 23.1747C2.65873 22.7255 3.02414 22.3601 3.47334 22.3601C3.89314 22.3601 4.24927 22.6877 4.28407 23.1059C4.31183 23.44 4.59113 23.6971 4.92637 23.6971H7.10256V24.3625H6.64383C6.3678 24.3625 6.12055 24.4864 5.95332 24.6809V24.6809ZM10.433 33.7063H7.5796C7.57848 33.6836 7.57728 33.6609 7.57728 33.638C7.57728 32.85 8.21829 32.209 9.00625 32.209C9.79421 32.209 10.4352 32.85 10.4352 33.638C10.4353 33.6609 10.434 33.6836 10.433 33.7063ZM30.3116 33.7063H28.0679C28.0668 33.6836 28.0656 33.6609 28.0656 33.638C28.0656 32.85 28.7066 32.209 29.4946 32.209C29.8885 32.209 30.2459 32.3693 30.5046 32.628C30.3791 32.9405 30.3093 33.2812 30.3093 33.638C30.3092 33.6609 30.311 33.6834 30.3116 33.7063ZM29.4946 30.9199C27.9959 30.9199 26.7765 32.1391 26.7765 33.6379C26.7765 33.6608 26.7782 33.6834 26.7788 33.7062H11.722C11.7226 33.6834 11.7244 33.6608 11.7244 33.6379C11.7244 32.365 10.8446 31.2941 9.66135 31.0001C9.64915 30.8018 9.64227 30.6025 9.64227 30.4023C9.64227 30.3365 9.64322 30.271 9.64451 30.2056L16.2366 32.4441C16.6807 32.5949 17.1349 32.6692 17.5847 32.6692C18.4345 32.6692 19.2687 32.4038 19.9891 31.8878C21.0906 31.0984 21.7223 29.8686 21.7223 28.5134C21.7223 28.0289 21.6392 27.5536 21.4753 27.1006C21.3541 26.7659 20.9846 26.5928 20.6498 26.714C20.3151 26.8352 20.142 27.2047 20.2632 27.5394C20.3761 27.8513 20.4334 28.179 20.4334 28.5134C20.4334 29.4477 19.9978 30.2956 19.2383 30.8398C18.479 31.3839 17.5359 31.5237 16.6512 31.2233L7.02195 27.9535V25.6516H17.5715C17.8948 25.6516 18.2133 25.7057 18.5182 25.8126C18.8543 25.9305 19.222 25.7535 19.3397 25.4175C19.4575 25.0814 19.2805 24.7138 18.9446 24.596C18.5023 24.441 18.0403 24.3624 17.5715 24.3624H11.7273C13.7835 21.6856 17.1654 19.9346 20.9831 19.9346C27.2364 19.9346 32.3238 24.6304 32.3238 30.4022C32.3238 30.6084 32.3166 30.8136 32.3036 31.0179C31.9142 31.1259 31.5596 31.3184 31.2609 31.5746C30.7855 31.1669 30.1685 30.9199 29.4946 30.9199V30.9199ZM34.454 33.7063H31.6006C31.5995 33.6836 31.5983 33.6609 31.5983 33.638C31.5983 32.85 32.2393 32.209 33.0272 32.209C33.8152 32.209 34.4563 32.85 34.4563 33.638C34.4563 33.6609 34.4551 33.6836 34.454 33.7063ZM34.8583 31.2198C34.7555 31.2726 34.6558 31.3306 34.5611 31.3955C34.2745 31.1989 33.9482 31.0569 33.5974 30.9817C33.6073 30.7893 33.6128 30.5962 33.6128 30.4023C33.6128 30.1647 33.6029 29.9293 33.5878 29.6952H34.8583V31.2198ZM37.5226 33.6379C37.5226 33.6608 37.5214 33.6835 37.5203 33.7062H35.743C35.7436 33.6834 35.7454 33.6608 35.7454 33.6379C35.7454 33.1811 35.6316 32.7506 35.4317 32.3724C35.6296 32.2681 35.8547 32.2089 36.0937 32.2089C36.8816 32.2089 37.5226 32.8499 37.5226 33.6379ZM37.5226 27.7185C37.5226 28.0977 37.2142 28.4061 36.835 28.4061H33.4281C33.33 27.8759 33.1959 27.3569 33.0241 26.8532H37.5226V27.7185ZM42.7109 25.5642H32.4932C32.2456 25.0558 31.9601 24.5669 31.6404 24.1H34.375C34.731 24.1 35.0195 23.8115 35.0195 23.4555C35.0195 23.0996 34.731 22.811 34.375 22.811H30.6187C30.0022 22.134 29.3059 21.5223 28.5421 20.9894C28.5747 20.9907 28.6074 20.9917 28.6401 20.9917C29.2345 20.9917 29.8024 20.7773 30.2472 20.4046C30.692 20.7773 31.26 20.9917 31.8544 20.9917C32.4487 20.9917 33.0167 20.7773 33.4615 20.4046C33.9062 20.7773 34.4743 20.9917 35.0686 20.9917C35.6629 20.9917 36.2309 20.7773 36.6757 20.4046C37.1204 20.7773 37.6885 20.9917 38.2828 20.9917C38.8772 20.9917 39.4451 20.7773 39.89 20.4046C40.105 20.5848 40.3489 20.7275 40.6106 20.8274L39.6508 22.811H37.3828C37.0268 22.811 36.7383 23.0996 36.7383 23.4555C36.7383 23.8115 37.0268 24.1 37.3828 24.1H42.7109V25.5642Z" fill="#363853"/>
</g>
</g>
<defs>
<clipPath id="clip0_0_199">
<rect width="44" height="44" fill="white"/>
</clipPath>
<clipPath id="clip1_0_199">
<rect width="44" height="44" fill="white"/>
</clipPath>
</defs>
</svg>
