<svg width="41" height="34" viewBox="0 0 41 34" fill="none" xmlns="http://www.w3.org/2000/svg">
<path d="M31.7543 12.8813L32.7503 11.8853C33.0383 11.5974 33.1969 11.2146 33.1969 10.8075C33.1969 10.4003 33.0383 10.0175 32.7504 9.72964L31.6096 8.58885C31.3217 8.30098 30.9389 8.1424 30.5318 8.1424C30.1246 8.1424 29.7418 8.30098 29.454 8.58885L28.4579 9.58487C27.1434 8.67943 25.6517 8.01377 24.046 7.65166V6.1795H24.6521C25.4727 6.1795 26.1403 5.51185 26.1403 4.69127V2.62086C26.1403 1.80022 25.4727 1.13257 24.6521 1.13257H17.8004C16.9798 1.13257 16.3122 1.80022 16.3122 2.62086V4.69121C16.3122 5.51179 16.9798 6.17943 17.8004 6.17943H18.4064V7.65571C16.8081 8.01882 15.3231 8.68295 14.0137 9.58481L13.0177 8.58878C12.7299 8.30091 12.347 8.14233 11.94 8.14233C11.5327 8.14233 11.15 8.30091 10.8621 8.58878L9.72132 9.72957C9.12706 10.3239 9.12706 11.2909 9.72132 11.8852L9.8979 12.0618H5.19077C4.82407 12.0618 4.52671 12.3591 4.52671 12.7259C4.52671 13.0926 4.82407 13.3899 5.19077 13.3899H10.3845C9.88966 14.1869 9.48 15.0418 9.16863 15.9424H0.664061C0.297367 15.9424 0 16.2397 0 16.6065C0 16.9732 0.297367 17.2705 0.664061 17.2705H8.78898C8.60165 18.0942 8.4942 18.9478 8.47521 19.823H4.24999C3.8833 19.823 3.58593 20.1203 3.58593 20.487C3.58593 20.8538 3.8833 21.1511 4.24999 21.1511H8.51492C8.58671 22.0299 8.74801 22.8836 8.98946 23.7035H3.32031C2.95361 23.7035 2.65624 24.0008 2.65624 24.3676C2.65624 24.7344 2.95361 25.0317 3.32031 25.0317H9.46181C11.3938 29.63 15.9436 32.8676 21.2358 32.8676C28.274 32.8676 34 27.1416 34 20.1034C34 17.4246 33.1699 14.9365 31.7543 12.8813ZM30.3931 9.52796C30.4406 9.48048 30.4947 9.47052 30.5318 9.47052C30.5689 9.47052 30.623 9.48048 30.6705 9.52796L31.8113 10.6688C31.8588 10.7162 31.8688 10.7704 31.8688 10.8075C31.8688 10.8445 31.8588 10.8987 31.8112 10.9462L30.9382 11.8192C30.5031 11.3104 30.0288 10.8362 29.52 10.4011L30.3931 9.52796ZM17.6403 4.69127V2.62086C17.6403 2.53254 17.7122 2.46069 17.8004 2.46069H24.6521C24.7403 2.46069 24.8122 2.53254 24.8122 2.62086V4.69121C24.8122 4.77953 24.7403 4.85131 24.6521 4.85131H23.382H19.0704H17.8004C17.7122 4.85138 17.6403 4.77953 17.6403 4.69127ZM19.7345 6.1795H22.7179V7.42574C22.2315 7.36923 21.7372 7.33922 21.2359 7.33922C20.7279 7.33922 20.2272 7.36996 19.7346 7.42794L19.7345 6.1795ZM10.6604 10.6687L11.8012 9.5279C11.8486 9.48042 11.9028 9.47046 11.9399 9.47046C11.9769 9.47046 12.0311 9.48042 12.0786 9.5279L12.9516 10.401C12.4428 10.8361 11.9686 11.3104 11.5335 11.8192L10.6604 10.9461C10.5839 10.8697 10.5839 10.7452 10.6604 10.6687ZM21.2358 31.5394C14.93 31.5394 9.79975 26.4092 9.79975 20.1033C9.79975 13.7975 14.93 8.66727 21.2358 8.66727C27.5417 8.66727 32.6719 13.7975 32.6719 20.1033C32.6719 26.4092 27.5417 31.5394 21.2358 31.5394Z" fill="url(#paint0_linear_19731_46)"/>
<path d="M25.6188 14.7812L22.4797 17.9202C22.1126 17.7103 21.6881 17.5895 21.2358 17.5895C19.8497 17.5895 18.722 18.7172 18.722 20.1034C18.722 21.4894 19.8497 22.6171 21.2358 22.6171C22.6219 22.6171 23.7495 21.4894 23.7495 20.1034C23.7495 19.651 23.6288 19.2265 23.4188 18.8594L26.5579 15.7203C26.8172 15.461 26.8172 15.0405 26.5579 14.7812C26.2985 14.5218 25.8782 14.5218 25.6188 14.7812ZM21.2358 21.289C20.582 21.289 20.0502 20.7572 20.0502 20.1034C20.0502 19.4496 20.5821 18.9177 21.2358 18.9177C21.8895 18.9177 22.4214 19.4496 22.4214 20.1034C22.4214 20.7572 21.8896 21.289 21.2358 21.289Z" fill="url(#paint1_linear_19731_46)"/>
<path d="M21.2361 11.4937C21.4107 11.4937 21.582 11.4226 21.7055 11.2991C21.829 11.1756 21.9001 11.0042 21.9001 10.8296C21.9001 10.6549 21.8291 10.4836 21.7055 10.3601C21.582 10.2366 21.4107 10.1655 21.2361 10.1655C21.0614 10.1655 20.8901 10.2366 20.7666 10.3601C20.6431 10.4836 20.572 10.6549 20.572 10.8296C20.572 11.0049 20.643 11.1756 20.7666 11.2991C20.8902 11.4226 21.0614 11.4937 21.2361 11.4937Z" fill="url(#paint2_linear_19731_46)"/>
<path d="M21.2361 28.7129C21.0614 28.7129 20.8901 28.7839 20.7666 28.9075C20.6431 29.031 20.572 29.2023 20.572 29.377C20.572 29.5523 20.643 29.7229 20.7666 29.8464C20.8901 29.9706 21.0614 30.041 21.2361 30.041C21.4107 30.041 21.582 29.9706 21.7055 29.8464C21.829 29.7229 21.9001 29.5516 21.9001 29.377C21.9001 29.2023 21.8291 29.031 21.7055 28.9075C21.582 28.7839 21.4107 28.7129 21.2361 28.7129Z" fill="url(#paint3_linear_19731_46)"/>
<path d="M14.6784 12.8816C14.5038 12.8816 14.3325 12.9526 14.2089 13.0762C14.0854 13.1997 14.0144 13.371 14.0144 13.5457C14.0144 13.721 14.0854 13.8916 14.2089 14.0158C14.3325 14.1393 14.5038 14.2097 14.6784 14.2097C14.8531 14.2097 15.0244 14.1393 15.1479 14.0158C15.2714 13.8916 15.3425 13.721 15.3425 13.5457C15.3425 13.371 15.2714 13.2003 15.1479 13.0762C15.0244 12.9526 14.8531 12.8816 14.6784 12.8816Z" fill="url(#paint4_linear_19731_46)"/>
<path d="M27.7937 25.9968C27.6183 25.9968 27.4477 26.0679 27.3235 26.1914C27.2 26.3149 27.1296 26.4862 27.1296 26.6609C27.1296 26.8355 27.2 27.0069 27.3235 27.1304C27.4477 27.2539 27.6183 27.325 27.7937 27.325C27.9683 27.325 28.1397 27.2539 28.2631 27.1304C28.3866 27.0069 28.4577 26.8355 28.4577 26.6609C28.4577 26.4862 28.3867 26.3149 28.2631 26.1914C28.1397 26.0679 27.9683 25.9968 27.7937 25.9968Z" fill="url(#paint5_linear_19731_46)"/>
<path d="M14.6784 25.9968C14.5038 25.9968 14.3325 26.0679 14.2089 26.1914C14.0854 26.3149 14.0144 26.4862 14.0144 26.6609C14.0144 26.8355 14.0854 27.0069 14.2089 27.1304C14.3325 27.2539 14.5038 27.325 14.6784 27.325C14.8531 27.325 15.0244 27.2539 15.1479 27.1304C15.2714 27.0069 15.3425 26.8355 15.3425 26.6609C15.3425 26.4862 15.2714 26.3149 15.1479 26.1914C15.0244 26.0679 14.8531 25.9968 14.6784 25.9968Z" fill="url(#paint6_linear_19731_46)"/>
<path d="M11.9625 19.4392C11.7871 19.4392 11.6165 19.5103 11.493 19.6338C11.3689 19.7573 11.2984 19.9286 11.2984 20.1033C11.2984 20.2779 11.3689 20.4492 11.493 20.5728C11.6165 20.6969 11.7872 20.7673 11.9625 20.7673C12.1371 20.7673 12.3084 20.6969 12.4319 20.5728C12.5554 20.4492 12.6265 20.2779 12.6265 20.1033C12.6265 19.9286 12.5555 19.7573 12.4319 19.6338C12.3084 19.5103 12.1371 19.4392 11.9625 19.4392Z" fill="url(#paint7_linear_19731_46)"/>
<path d="M30.9791 19.6338C30.8556 19.5103 30.6842 19.4392 30.5096 19.4392C30.3343 19.4392 30.1636 19.5103 30.0402 19.6338C29.9167 19.7573 29.8455 19.9286 29.8455 20.1033C29.8455 20.2786 29.9166 20.4492 30.0402 20.5728C30.1636 20.6963 30.335 20.7673 30.5096 20.7673C30.6842 20.7673 30.8556 20.6963 30.9791 20.5728C31.1026 20.4492 31.1737 20.2779 31.1737 20.1033C31.1736 19.9286 31.1026 19.7574 30.9791 19.6338Z" fill="url(#paint8_linear_19731_46)"/>
<path d="M0.664062 23.7039C0.489414 23.7039 0.318086 23.7742 0.19457 23.8978C0.0710547 24.0219 0 24.1926 0 24.3679C0 24.5426 0.0709883 24.7132 0.19457 24.8374C0.318086 24.9609 0.489414 25.032 0.664062 25.032C0.838711 25.032 1.01004 24.9609 1.13349 24.8374C1.257 24.7139 1.32812 24.5426 1.32812 24.3679C1.32812 24.1926 1.25707 24.0213 1.13349 23.8978C1.01004 23.7742 0.838711 23.7039 0.664062 23.7039Z" fill="url(#paint9_linear_19731_46)"/>
<path d="M30.3142 18.0871C30.6656 17.9824 30.8657 17.6126 30.761 17.2611C30.2915 15.6858 29.425 14.2361 28.2553 13.0688C27.0853 11.9014 25.6336 11.0381 24.057 10.5721C23.7054 10.4681 23.336 10.669 23.232 11.0207C23.128 11.3724 23.3288 11.7418 23.6806 11.8457C26.4825 12.6739 28.6536 14.8401 29.4882 17.6403C29.574 17.9285 29.8382 18.1149 30.1243 18.1149C30.187 18.1149 30.2509 18.1059 30.3142 18.0871Z" fill="url(#paint10_linear_19731_46)"/>
<ellipse opacity="0.35" cx="27.0179" cy="13.5" rx="13.0179" ry="13.5" fill="url(#paint11_linear_19731_46)"/>
<defs>
<linearGradient id="paint0_linear_19731_46" x1="-1.82285e-07" y1="15.9422" x2="33.185" y2="16.1009" gradientUnits="userSpaceOnUse">
<stop stop-color="#FF7D3D"/>
<stop offset="1" stop-color="#F99462" stop-opacity="0.71"/>
</linearGradient>
<linearGradient id="paint1_linear_19731_46" x1="18.722" y1="18.3342" x2="26.5599" y2="18.3692" gradientUnits="userSpaceOnUse">
<stop stop-color="#FF7D3D"/>
<stop offset="1" stop-color="#F99462" stop-opacity="0.71"/>
</linearGradient>
<linearGradient id="paint2_linear_19731_46" x1="20.572" y1="10.7853" x2="21.8683" y2="10.7911" gradientUnits="userSpaceOnUse">
<stop stop-color="#FF7D3D"/>
<stop offset="1" stop-color="#F99462" stop-opacity="0.71"/>
</linearGradient>
<linearGradient id="paint3_linear_19731_46" x1="20.572" y1="29.3327" x2="21.8683" y2="29.3385" gradientUnits="userSpaceOnUse">
<stop stop-color="#FF7D3D"/>
<stop offset="1" stop-color="#F99462" stop-opacity="0.71"/>
</linearGradient>
<linearGradient id="paint4_linear_19731_46" x1="14.0144" y1="13.5014" x2="15.3107" y2="13.5072" gradientUnits="userSpaceOnUse">
<stop stop-color="#FF7D3D"/>
<stop offset="1" stop-color="#F99462" stop-opacity="0.71"/>
</linearGradient>
<linearGradient id="paint5_linear_19731_46" x1="27.1296" y1="26.6166" x2="28.4259" y2="26.6224" gradientUnits="userSpaceOnUse">
<stop stop-color="#FF7D3D"/>
<stop offset="1" stop-color="#F99462" stop-opacity="0.71"/>
</linearGradient>
<linearGradient id="paint6_linear_19731_46" x1="14.0144" y1="26.6166" x2="15.3107" y2="26.6224" gradientUnits="userSpaceOnUse">
<stop stop-color="#FF7D3D"/>
<stop offset="1" stop-color="#F99462" stop-opacity="0.71"/>
</linearGradient>
<linearGradient id="paint7_linear_19731_46" x1="11.2984" y1="20.059" x2="12.5947" y2="20.0648" gradientUnits="userSpaceOnUse">
<stop stop-color="#FF7D3D"/>
<stop offset="1" stop-color="#F99462" stop-opacity="0.71"/>
</linearGradient>
<linearGradient id="paint8_linear_19731_46" x1="29.8455" y1="20.059" x2="31.1418" y2="20.0648" gradientUnits="userSpaceOnUse">
<stop stop-color="#FF7D3D"/>
<stop offset="1" stop-color="#F99462" stop-opacity="0.71"/>
</linearGradient>
<linearGradient id="paint9_linear_19731_46" x1="-7.12053e-09" y1="24.3236" x2="1.29629" y2="24.3294" gradientUnits="userSpaceOnUse">
<stop stop-color="#FF7D3D"/>
<stop offset="1" stop-color="#F99462" stop-opacity="0.71"/>
</linearGradient>
<linearGradient id="paint10_linear_19731_46" x1="23.2045" y1="14.0774" x2="30.607" y2="14.1105" gradientUnits="userSpaceOnUse">
<stop stop-color="#FF7D3D"/>
<stop offset="1" stop-color="#F99462" stop-opacity="0.71"/>
</linearGradient>
<linearGradient id="paint11_linear_19731_46" x1="14" y1="12.6" x2="39.4118" y2="12.7093" gradientUnits="userSpaceOnUse">
<stop stop-color="#F99462"/>
<stop offset="1" stop-color="#F99462" stop-opacity="0.65"/>
</linearGradient>
</defs>
</svg>
