<svg width="20" height="22" viewBox="0 0 20 22" fill="none" xmlns="http://www.w3.org/2000/svg">
<path fill-rule="evenodd" clip-rule="evenodd" d="M10.5748 2.54016V1.58133C10.5748 1.41925 10.5104 1.26381 10.3958 1.14921C10.2812 1.0346 10.1257 0.970215 9.96367 0.970215C9.80159 0.970215 9.64615 1.0346 9.53154 1.14921C9.41694 1.26381 9.35256 1.41925 9.35256 1.58133V2.54566C4.55045 2.87933 0.744446 6.88974 0.744446 11.7753C0.744446 16.8777 4.89664 21.0299 10 21.0299C15.1034 21.0299 19.2556 16.8777 19.2556 11.7753C19.2556 6.8653 15.4114 2.83808 10.5748 2.54016ZM10 19.8077C5.57039 19.8077 1.96667 16.204 1.96667 11.7753C1.96667 7.34594 5.57039 3.74252 10 3.74252C14.4297 3.74252 18.0334 7.34594 18.0334 11.7753C18.0334 16.204 14.4297 19.8077 10 19.8077ZM6.86295 17.3217C4.86798 16.1902 3.62865 14.0645 3.62865 11.7749C3.62865 11.6057 3.49206 11.4694 3.32309 11.4694C3.15412 11.4694 3.01754 11.6057 3.01754 11.7749C3.01754 14.2842 4.37573 16.6134 6.56167 17.8537C6.63222 17.8936 6.71574 17.9039 6.79388 17.8823C6.87201 17.8606 6.93835 17.8089 6.9783 17.7383C7.01825 17.6678 7.02854 17.5842 7.00691 17.5061C6.98528 17.428 6.9335 17.3616 6.86295 17.3217ZM8.17692 18.0578C8.29343 18.095 8.4109 18.129 8.52923 18.1599C8.56806 18.1698 8.60456 18.1873 8.63661 18.2114C8.66867 18.2355 8.69566 18.2656 8.71604 18.3001C8.73642 18.3347 8.74979 18.3729 8.75538 18.4125C8.76097 18.4522 8.75867 18.4926 8.74862 18.5315C8.72834 18.6099 8.67775 18.6771 8.60796 18.7182C8.53817 18.7593 8.4549 18.7711 8.37645 18.7508C8.24598 18.7175 8.11826 18.6809 7.99114 18.6399C7.91531 18.6142 7.8526 18.5597 7.81652 18.4882C7.78044 18.4167 7.77386 18.3339 7.79821 18.2577C7.82256 18.1814 7.87589 18.1177 7.94671 18.0803C8.01754 18.0429 8.10021 18.0349 8.17692 18.0578ZM17.8854 5.72799C18.0002 5.84242 18.1557 5.90657 18.3177 5.90634C18.4798 5.90611 18.6351 5.84152 18.7495 5.72677C18.864 5.61202 18.9281 5.45651 18.9279 5.29446C18.9277 5.13241 18.8631 4.97708 18.7483 4.86266L17.1616 3.27988C17.1048 3.22316 17.0374 3.17819 16.9632 3.14755C16.889 3.11691 16.8095 3.1012 16.7293 3.10131C16.649 3.10143 16.5695 3.11736 16.4955 3.14821C16.4214 3.17906 16.3541 3.22422 16.2975 3.2811C16.1831 3.3959 16.119 3.55139 16.1193 3.71341C16.1195 3.87543 16.184 4.03074 16.2987 4.14521L17.8854 5.72799ZM10.5746 6.77576V11.6613L12.1714 13.1518C12.4168 13.3834 12.4376 13.7699 12.205 14.0156C12.15 14.0761 12.0828 14.1245 12.0079 14.1575C11.9331 14.1906 11.8521 14.2076 11.7702 14.2075C11.6196 14.2075 11.469 14.1519 11.3507 14.0407L9.5623 12.3693C9.44008 12.2541 9.35238 12.0937 9.35238 11.9253V6.77576C9.35238 6.61369 9.41677 6.45825 9.53137 6.34364C9.64598 6.22904 9.80142 6.16465 9.9635 6.16465C10.1256 6.16465 10.281 6.22904 10.3956 6.34364C10.5102 6.45825 10.5746 6.61369 10.5746 6.77576Z" fill="#363853"/>
</svg>
