<svg width="34" height="36" viewBox="0 0 34 36" fill="none" xmlns="http://www.w3.org/2000/svg">
<path d="M25.8125 31.3375H22.75V22.8835C23.0206 22.83 23.2757 22.7204 23.4979 22.5625C23.72 22.4045 23.9036 22.202 24.0361 21.9688C24.1686 21.7357 24.2468 21.4776 24.2651 21.2125C24.2835 20.9474 24.2416 20.6817 24.1423 20.4337L22.75 16.9508V10.2958C22.75 10.2406 22.7387 10.1858 22.7167 10.1348C22.6947 10.0837 22.6625 10.0373 22.6219 9.99823C22.5813 9.95915 22.533 9.92815 22.4799 9.907C22.4269 9.88586 22.37 9.87499 22.3125 9.875H3.9375C3.88004 9.87499 3.82315 9.88586 3.77006 9.907C3.71697 9.92815 3.66874 9.95915 3.62811 9.99823C3.58748 10.0373 3.55525 10.0837 3.53327 10.1348C3.51129 10.1858 3.49998 10.2406 3.5 10.2958V16.9508L2.10766 20.4337C2.00844 20.6817 1.96655 20.9474 1.98489 21.2125C2.00323 21.4776 2.08136 21.7357 2.21386 21.9688C2.34636 22.202 2.53004 22.4045 2.75215 22.5625C2.97425 22.7204 3.22945 22.83 3.5 22.8835V31.3375H0.4375C0.380042 31.3375 0.323145 31.3484 0.270058 31.3695C0.216971 31.3906 0.168736 31.4216 0.128107 31.4607C0.0874786 31.4998 0.0552531 31.5462 0.033272 31.5973C0.0112909 31.6483 -1.50735e-05 31.7031 1.50825e-08 31.7583V34.7042C-1.50735e-05 34.7594 0.0112909 34.8142 0.033272 34.8652C0.0552531 34.9163 0.0874786 34.9627 0.128107 35.0018C0.168736 35.0409 0.216971 35.0719 0.270058 35.093C0.323145 35.1141 0.380042 35.125 0.4375 35.125H25.8125C25.87 35.125 25.9269 35.1141 25.9799 35.093C26.033 35.0719 26.0813 35.0409 26.1219 35.0018C26.1625 34.9627 26.1947 34.9163 26.2167 34.8652C26.2387 34.8142 26.25 34.7594 26.25 34.7042V31.7583C26.25 31.7031 26.2387 31.6483 26.2167 31.5973C26.1947 31.5462 26.1625 31.4998 26.1219 31.4607C26.0813 31.4216 26.033 31.3906 25.9799 31.3695C25.9269 31.3484 25.87 31.3375 25.8125 31.3375V31.3375ZM21 31.3375V22.3617C21.2394 22.6004 21.5419 22.7719 21.875 22.8577V31.3375H21ZM17.5 31.7583V34.2833H15.75V31.3375H16.625C16.741 31.3375 16.8523 31.2932 16.9344 31.2142C17.0164 31.1353 17.0625 31.0283 17.0625 30.9167V29.6542C17.0625 29.5426 17.0164 29.4355 16.9344 29.3566C16.8523 29.2777 16.741 29.2333 16.625 29.2333H14C13.884 29.2333 13.7727 29.2777 13.6906 29.3566C13.6086 29.4355 13.5625 29.5426 13.5625 29.6542V30.9167C13.5625 31.0283 13.6086 31.1353 13.6906 31.2142C13.7727 31.2932 13.884 31.3375 14 31.3375H14.875V34.2833H13.125V31.7583C13.125 31.7031 13.1137 31.6483 13.0917 31.5973C13.0697 31.5462 13.0375 31.4998 12.9969 31.4607C12.9563 31.4216 12.908 31.3906 12.8549 31.3695C12.8019 31.3484 12.745 31.3375 12.6875 31.3375H11.8125V30.075C11.8125 30.0197 11.8012 29.965 11.7792 29.9139C11.7572 29.8629 11.725 29.8165 11.6844 29.7774C11.6438 29.7383 11.5955 29.7073 11.5424 29.6862C11.4894 29.665 11.4325 29.6542 11.375 29.6542H10.5V22.8824C10.9241 22.798 11.3055 22.5768 11.5812 22.2554C11.608 22.2875 11.6364 22.3185 11.6665 22.349C11.8436 22.5305 12.0576 22.6749 12.2953 22.7732C12.533 22.8716 12.7892 22.9219 13.0479 22.9208H13.2021C13.4608 22.9219 13.717 22.8716 13.9547 22.7732C14.1924 22.6749 14.4064 22.5305 14.5835 22.349C14.6136 22.3185 14.642 22.2875 14.6688 22.2554C14.732 22.3286 14.8009 22.3971 14.875 22.4602V23.7625C14.295 23.7631 13.739 23.9849 13.3288 24.3794C12.9187 24.7739 12.6881 25.3088 12.6875 25.8667C12.6875 25.9219 12.6988 25.9767 12.7208 26.0277C12.7428 26.0788 12.775 26.1252 12.8156 26.1643C12.8562 26.2034 12.9045 26.2344 12.9576 26.2555C13.0106 26.2766 13.0675 26.2875 13.125 26.2875H17.5C17.5575 26.2875 17.6144 26.2766 17.6674 26.2555C17.7205 26.2344 17.7688 26.2034 17.8094 26.1643C17.85 26.1252 17.8822 26.0788 17.9042 26.0277C17.9262 25.9767 17.9375 25.9219 17.9375 25.8667C17.9369 25.3088 17.7063 24.7739 17.2962 24.3794C16.886 23.9849 16.33 23.7631 15.75 23.7625V22.8824C15.8772 22.9081 16.0067 22.9209 16.1366 22.9208H16.2734C16.5495 22.921 16.8223 22.8633 17.0729 22.7518C17.3234 22.6402 17.5457 22.4775 17.7242 22.2749C17.7357 22.2622 17.7466 22.2491 17.757 22.2359C17.9352 22.4504 18.1614 22.6233 18.4188 22.7419C18.6762 22.8605 18.9581 22.9217 19.2434 22.9208H19.3282C19.6032 22.9213 19.875 22.8646 20.125 22.7546V29.6542H19.25C19.1925 29.6542 19.1356 29.665 19.0826 29.6862C19.0295 29.7073 18.9812 29.7383 18.9406 29.7774C18.9 29.8165 18.8678 29.8629 18.8458 29.9139C18.8238 29.965 18.8125 30.0197 18.8125 30.075V31.3375H17.9375C17.88 31.3375 17.8231 31.3484 17.7701 31.3695C17.717 31.3906 17.6687 31.4216 17.6281 31.4607C17.5875 31.4998 17.5553 31.5462 17.5333 31.5973C17.5113 31.6483 17.5 31.7031 17.5 31.7583V31.7583ZM14.4375 30.4958V30.075H16.1875V30.4958H14.4375ZM5.93031 20.8309L6.89609 17.45H8.6718L8.02046 21.2517C7.98148 21.4831 7.85796 21.6936 7.67212 21.8452C7.48627 21.9969 7.25028 22.0799 7.00656 22.0792H6.9218C6.76383 22.0791 6.60801 22.044 6.46642 21.9767C6.32483 21.9093 6.20129 21.8114 6.10539 21.6907C6.00948 21.5699 5.9438 21.4296 5.91344 21.2804C5.88307 21.1313 5.88885 20.9775 5.93031 20.8309V20.8309ZM6.125 22.7546C6.37504 22.8646 6.64685 22.9213 6.9218 22.9208H7.00656C7.29194 22.9217 7.57383 22.8605 7.83121 22.7419C8.08858 22.6233 8.31479 22.4504 8.49297 22.2359C8.50336 22.2491 8.51429 22.2622 8.52578 22.2749C8.8079 22.5951 9.19608 22.812 9.625 22.8893V25.025H6.125V22.7546ZM9.97664 22.0792C9.82751 22.0792 9.68016 22.0481 9.54482 21.9878C9.40948 21.9276 9.2894 21.8397 9.19292 21.7304C9.09644 21.621 9.02587 21.4927 8.98612 21.3545C8.94637 21.2162 8.93839 21.0713 8.96273 20.9298L9.55883 17.45H11.3504L11.1393 21.1449C11.1249 21.3973 11.0105 21.6348 10.8197 21.8085C10.6289 21.9823 10.3761 22.0791 10.1134 22.0792H9.97664ZM13.948 21.7704C13.8524 21.8683 13.7368 21.9462 13.6084 21.9994C13.4801 22.0525 13.3418 22.0796 13.2021 22.0792H13.0479C12.9085 22.0791 12.7705 22.0518 12.6424 21.9989C12.5143 21.9459 12.3987 21.8684 12.3027 21.7711C12.2067 21.6738 12.1323 21.5588 12.0841 21.4329C12.0358 21.3071 12.0147 21.1731 12.022 21.0392L12.2265 17.45H14.0235L14.228 21.0365V21.0392C14.236 21.173 14.2153 21.307 14.1671 21.4328C14.119 21.5586 14.0444 21.6735 13.948 21.7704ZM15.1107 21.1449L14.8996 17.45H16.6912L17.2873 20.9298C17.3116 21.0713 17.3036 21.2162 17.2639 21.3545C17.2241 21.4927 17.1536 21.621 17.0571 21.7304C16.9606 21.8397 16.8405 21.9276 16.7052 21.9878C16.5698 22.0481 16.4225 22.0792 16.2734 22.0792H16.1366C15.8739 22.0791 15.6211 21.9823 15.4303 21.8085C15.2395 21.6348 15.1251 21.3973 15.1107 21.1449V21.1449ZM15.75 24.6042C16.0214 24.6045 16.286 24.6855 16.5075 24.8362C16.7291 24.9869 16.8968 25.1999 16.9876 25.4458H13.6374C13.7282 25.1999 13.8959 24.9869 14.1175 24.8362C14.339 24.6855 14.6036 24.6045 14.875 24.6042H15.75ZM20.1452 21.6899C20.0498 21.8113 19.9263 21.9097 19.7845 21.9773C19.6427 22.0448 19.4864 22.0797 19.3282 22.0792H19.2434C18.9997 22.0799 18.7637 21.9969 18.5779 21.8452C18.392 21.6936 18.2685 21.4831 18.2295 21.2517L17.5782 17.45H19.3539L20.3191 20.8288C20.3191 20.8293 20.3197 20.8303 20.3197 20.8309C20.3616 20.9773 20.3677 21.1311 20.3375 21.2801C20.3072 21.4292 20.2414 21.5694 20.1452 21.6899V21.6899ZM19.6875 30.4958H20.125V31.3375H19.6875V30.4958ZM23.3259 20.7357C23.3858 20.8854 23.4069 21.0469 23.3874 21.2063C23.3678 21.3656 23.3083 21.518 23.2139 21.6503C23.1194 21.7825 22.993 21.8907 22.8454 21.9654C22.6977 22.0401 22.5334 22.0792 22.3666 22.0792C22.1417 22.0787 21.9231 22.0074 21.7441 21.8763C21.5652 21.7451 21.4358 21.5612 21.3757 21.3527L20.2612 17.45H22.0123L23.3259 20.7357ZM4.375 10.7167H21.875V16.6083H4.375V10.7167ZM3.03625 21.6504C2.94065 21.5187 2.88039 21.3662 2.86083 21.2066C2.84127 21.047 2.86302 20.8852 2.92414 20.7357L4.23773 17.45H5.98883L4.8743 21.3527C4.81417 21.5612 4.68477 21.7451 4.50585 21.8763C4.32693 22.0074 4.10832 22.0787 3.88336 22.0792C3.71638 22.0803 3.55168 22.0418 3.40389 21.967C3.25611 21.8922 3.12982 21.7835 3.03625 21.6504V21.6504ZM4.375 22.8577C4.70808 22.7719 5.01058 22.6004 5.25 22.3617V31.3375H4.375V22.8577ZM7.875 34.2833H0.875V32.1792H7.875V34.2833ZM8.3125 31.3375H6.125V25.8667H9.625V34.2833H8.75V31.7583C8.75002 31.7031 8.73871 31.6483 8.71673 31.5973C8.69475 31.5462 8.66252 31.4998 8.62189 31.4607C8.58126 31.4216 8.53303 31.3906 8.47994 31.3695C8.42686 31.3484 8.36996 31.3375 8.3125 31.3375V31.3375ZM10.5 30.4958H10.9375V31.7583C10.9375 31.8136 10.9488 31.8683 10.9708 31.9194C10.9928 31.9705 11.025 32.0169 11.0656 32.0559C11.1062 32.095 11.1545 32.126 11.2076 32.1472C11.2606 32.1683 11.3175 32.1792 11.375 32.1792H12.25V34.2833H10.5V30.4958ZM25.375 34.2833H18.375V32.1792H25.375V34.2833Z" fill="url(#paint0_linear_19731_44)"/>
<path d="M16.1875 14.25H15.7128C15.6211 13.7131 15.365 13.2178 14.9798 12.8327C14.5947 12.4475 14.0994 12.1914 13.5625 12.0997V11.625C13.5625 11.509 13.5164 11.3977 13.4344 11.3156C13.3523 11.2336 13.241 11.1875 13.125 11.1875C13.009 11.1875 12.8977 11.2336 12.8156 11.3156C12.7336 11.3977 12.6875 11.509 12.6875 11.625V12.0997C12.1506 12.1914 11.6553 12.4475 11.2702 12.8327C10.885 13.2178 10.6289 13.7131 10.5372 14.25H10.0625C9.94647 14.25 9.83519 14.2961 9.75314 14.3781C9.6711 14.4602 9.625 14.5715 9.625 14.6875C9.62553 15.1515 9.81007 15.5963 10.1381 15.9244C10.4662 16.2524 10.911 16.437 11.375 16.4375H14.875C15.339 16.437 15.7838 16.2524 16.1119 15.9244C16.4399 15.5963 16.6245 15.1515 16.625 14.6875C16.625 14.5715 16.5789 14.4602 16.4969 14.3781C16.4148 14.2961 16.3035 14.25 16.1875 14.25ZM13.125 12.9375C13.5129 12.938 13.8896 13.0671 14.1963 13.3046C14.5029 13.5421 14.7221 13.8746 14.8196 14.25H11.4304C11.5279 13.8746 11.7471 13.5421 12.0537 13.3046C12.3604 13.0671 12.7371 12.938 13.125 12.9375ZM14.875 15.5625H11.375C11.2215 15.5624 11.0706 15.522 10.9377 15.4452C10.8047 15.3684 10.6943 15.258 10.6174 15.125H15.6326C15.5557 15.258 15.4453 15.3684 15.3123 15.4452C15.1794 15.522 15.0285 15.5624 14.875 15.5625Z" fill="url(#paint1_linear_19731_44)"/>
<path d="M9.86768 13.3015C9.92761 13.2616 9.97675 13.2074 10.0107 13.1439C10.0447 13.0804 10.0625 13.0095 10.0625 12.9375V11.625H9.1875V12.6877C9.04868 12.7585 8.90177 12.8122 8.75 12.8477V11.625H7.875V12.8477C7.72323 12.8122 7.57632 12.7585 7.4375 12.6877V11.625H6.5625V12.9375C6.5625 13.0095 6.58028 13.0804 6.61427 13.1439C6.64825 13.2074 6.69739 13.2616 6.75732 13.3015C7.09395 13.5263 7.47524 13.6755 7.875 13.739V16.4375H8.75V13.739C9.14976 13.6755 9.53105 13.5263 9.86768 13.3015Z" fill="url(#paint2_linear_19731_44)"/>
<path d="M17.9374 11.1875C17.5114 11.1875 17.1001 11.3429 16.7805 11.6245C16.4609 11.9061 16.255 12.2945 16.2013 12.7171C16.1477 13.1397 16.2499 13.5673 16.489 13.9198C16.728 14.2724 17.0875 14.5256 17.4999 14.6321V16.4375H18.3749V14.6321C18.7873 14.5256 19.1467 14.2724 19.3858 13.9198C19.6248 13.5673 19.7271 13.1397 19.6734 12.7171C19.6198 12.2945 19.4138 11.9061 19.0942 11.6245C18.7747 11.3429 18.3633 11.1875 17.9374 11.1875ZM17.9374 13.8125C17.7643 13.8125 17.5952 13.7612 17.4513 13.665C17.3074 13.5689 17.1952 13.4322 17.129 13.2723C17.0628 13.1125 17.0454 12.9365 17.0792 12.7668C17.113 12.5971 17.1963 12.4412 17.3187 12.3188C17.441 12.1964 17.5969 12.1131 17.7667 12.0793C17.9364 12.0456 18.1123 12.0629 18.2722 12.1291C18.4321 12.1953 18.5688 12.3075 18.6649 12.4514C18.7611 12.5953 18.8124 12.7644 18.8124 12.9375C18.8121 13.1695 18.7198 13.3919 18.5558 13.5559C18.3918 13.72 18.1694 13.8122 17.9374 13.8125Z" fill="url(#paint3_linear_19731_44)"/>
<ellipse opacity="0.15" cx="21.2218" cy="12" rx="12.0968" ry="12" fill="url(#paint4_linear_19731_44)"/>
<defs>
<linearGradient id="paint0_linear_19731_44" x1="-1.40735e-07" y1="21.6583" x2="25.6208" y2="21.7772" gradientUnits="userSpaceOnUse">
<stop stop-color="#FF5050"/>
<stop offset="1" stop-color="#FF7070" stop-opacity="0.84"/>
</linearGradient>
<linearGradient id="paint1_linear_19731_44" x1="9.625" y1="13.6375" x2="16.4571" y2="13.6781" gradientUnits="userSpaceOnUse">
<stop stop-color="#FF5050"/>
<stop offset="1" stop-color="#FF7070" stop-opacity="0.84"/>
</linearGradient>
<linearGradient id="paint2_linear_19731_44" x1="6.5625" y1="13.8708" x2="9.97865" y2="13.8819" gradientUnits="userSpaceOnUse">
<stop stop-color="#FF5050"/>
<stop offset="1" stop-color="#FF7070" stop-opacity="0.84"/>
</linearGradient>
<linearGradient id="paint3_linear_19731_44" x1="16.1874" y1="13.6375" x2="19.6035" y2="13.6477" gradientUnits="userSpaceOnUse">
<stop stop-color="#FF5050"/>
<stop offset="1" stop-color="#FF7070" stop-opacity="0.84"/>
</linearGradient>
<linearGradient id="paint4_linear_19731_44" x1="9.125" y1="11.2" x2="32.7387" y2="11.3062" gradientUnits="userSpaceOnUse">
<stop stop-color="#FF7070"/>
<stop offset="1" stop-color="#FF7070" stop-opacity="0.65"/>
</linearGradient>
</defs>
</svg>
