<svg width="33" height="29" viewBox="0 0 33 29" fill="none" xmlns="http://www.w3.org/2000/svg">
<path d="M28.125 23.9914C28.1255 23.2974 27.828 22.6276 27.2893 22.1107L26.5908 22.6482C26.8679 22.914 27.0577 23.2386 27.1406 23.5884H23.9062C23.8291 23.5884 23.7531 23.6048 23.6851 23.6361C23.617 23.6674 23.5591 23.7126 23.5162 23.7678L21.7804 26.0063H20.625V24.7973C20.626 24.0494 20.972 23.3324 21.5872 22.8036C22.2023 22.2748 23.0363 21.9773 23.9062 21.9764H24.8437C25.3047 21.9758 25.7556 22.0925 26.1394 22.312L26.6585 21.6409C26.2537 21.4092 25.7938 21.2584 25.3125 21.1993V19.9615C25.3125 19.8546 25.2631 19.7521 25.1752 19.6766C25.0873 19.601 24.9681 19.5585 24.8437 19.5585C24.3466 19.5581 23.8701 19.3881 23.5185 19.0859C23.167 18.7837 22.9693 18.374 22.9687 17.9466V16.3347H24.375C24.4993 16.3347 24.6185 16.2922 24.7065 16.2166C24.7944 16.1411 24.8437 16.0385 24.8437 15.9317V13.1108C24.8437 13.0039 24.7944 12.9014 24.7065 12.8258C24.6185 12.7503 24.4993 12.7078 24.375 12.7078H23.5482C23.3524 12.708 23.1574 12.7311 22.9687 12.7765V12.3048C22.9688 12.2133 22.9326 12.1244 22.866 12.0529L21.3323 10.4047C21.5333 10.1134 21.6055 9.76961 21.5359 9.43624C21.4663 9.10286 21.2595 8.80215 20.9532 8.58907C20.647 8.37599 20.2618 8.26476 19.868 8.27572C19.4743 8.28668 19.0982 8.41909 18.8086 8.64876C18.5191 8.87842 18.3353 9.19 18.2909 9.52655C18.2465 9.8631 18.3445 10.2021 18.5669 10.4817C18.7894 10.7613 19.1214 10.9627 19.5023 11.0491C19.8832 11.1356 20.2876 11.1013 20.6416 10.9526L22.0312 12.4462V12.9546L19.9705 12.3641C19.8355 12.3241 19.6936 12.304 19.5508 12.3048H15.6844L13.459 10.0727C13.6452 9.96152 13.7973 9.81324 13.9024 9.64054C14.0075 9.46784 14.0624 9.27584 14.0625 9.08093V8.92699L14.7409 8.63538C14.8003 8.60983 14.8528 8.57369 14.8947 8.52938C14.9367 8.48507 14.9672 8.43359 14.9843 8.37837C15.0013 8.32314 15.0045 8.26543 14.9937 8.20906C14.9828 8.15269 14.9581 8.09895 14.9212 8.05141L14.1513 7.05855C14.2582 7.04082 14.3546 6.99164 14.4239 6.91947C14.4933 6.84729 14.5312 6.75663 14.5312 6.66302C14.5304 6.02198 14.2338 5.4074 13.7065 4.95412C13.1793 4.50083 12.4644 4.24585 11.7187 4.24512C10.836 4.24512 10.0187 4.46308 9.41074 5.04061C9.14734 5.29123 8.94782 5.58644 8.82498 5.90727C8.70215 6.22811 8.65872 6.56749 8.69748 6.90361L8.79779 7.76559C8.83999 8.13725 9.04662 8.48077 9.375 8.7252V16.3347C9.37474 16.6178 9.46178 16.8959 9.62724 17.1406H8.90625C8.74654 17.1406 8.58801 17.164 8.4375 17.2099V11.9018C8.43708 11.5813 8.28879 11.274 8.02516 11.0474C7.76152 10.8207 7.40408 10.6932 7.03125 10.6929H1.40625C1.03342 10.6932 0.675976 10.8207 0.412344 11.0474C0.148711 11.274 0.000418835 11.5813 1.0491e-07 11.9018V13.9167H0.9375V13.1108H7.5V17.1406H0.9375V14.7227H1.0491e-07V18.0132C-0.000103758 18.202 0.0769155 18.3848 0.217613 18.5298C0.35831 18.6747 0.553746 18.7725 0.769805 18.8062L5.15625 19.4919V20.4375C4.75883 20.5167 4.37074 20.6271 3.99691 20.7675H1.40625C1.28193 20.7675 1.1627 20.8099 1.07479 20.8855C0.986886 20.9611 0.9375 21.0636 0.9375 21.1705V23.0832C0.32503 23.9674 0.00116612 24.9772 1.0491e-07 26.0063C1.0491e-07 26.1132 0.0493861 26.2157 0.137294 26.2912C0.225201 26.3668 0.34443 26.4093 0.46875 26.4093H2.61744C2.89757 27.0046 3.37812 27.5144 3.99747 27.8734C4.61683 28.2323 5.34678 28.4241 6.09375 28.4241C6.84072 28.4241 7.57067 28.2323 8.19003 27.8734C8.80938 27.5144 9.28993 27.0046 9.57006 26.4093H17.4516C17.7781 26.4091 18.101 26.3504 18.3996 26.2368C18.6983 26.1233 18.9661 25.9575 19.1859 25.7499L19.6875 25.2754V26.4093C19.6875 26.5161 19.7369 26.6187 19.8248 26.6942C19.9127 26.7698 20.0319 26.8123 20.1562 26.8123H21.1275C21.5403 27.4268 22.1774 27.9071 22.94 28.1787C23.7027 28.4502 24.5482 28.4979 25.3456 28.3142C26.1429 28.1305 26.8475 27.7258 27.35 27.1628C27.8526 26.5998 28.125 25.91 28.125 25.2003C28.1254 24.8917 28.0739 24.5846 27.9723 24.2886C28.0204 24.2509 28.0589 24.205 28.0852 24.1538C28.1115 24.1027 28.125 24.0473 28.125 23.9914ZM19.2187 9.68541C19.2187 9.56586 19.26 9.44899 19.3372 9.34958C19.4145 9.25017 19.5243 9.1727 19.6528 9.12695C19.7813 9.08119 19.9227 9.06922 20.059 9.09255C20.1954 9.11587 20.3207 9.17344 20.4191 9.25798C20.5174 9.34252 20.5844 9.45022 20.6115 9.56748C20.6386 9.68474 20.6247 9.80628 20.5715 9.91673C20.5183 10.0272 20.4281 10.1216 20.3125 10.188C20.1969 10.2544 20.0609 10.2899 19.9219 10.2899C19.7355 10.2897 19.5567 10.226 19.4249 10.1126C19.2931 9.99932 19.219 9.84567 19.2187 9.68541ZM12.5127 23.9914C12.0536 23.9909 11.6135 23.8339 11.2889 23.5549C10.9643 23.2758 10.7818 22.8974 10.7812 22.5028C10.7812 22.1072 10.8976 21.7371 11.2043 21.4327C11.4776 21.1621 11.855 20.9851 12.2676 20.934C12.7656 20.8729 13.2214 20.6594 13.5511 20.3327C13.8808 20.006 14.0624 19.5881 14.0625 19.1555C14.0626 19.1026 14.0505 19.0501 14.0269 19.0012C14.0033 18.9523 13.9687 18.9079 13.9251 18.8705C14.0048 18.7273 14.0508 18.5719 14.0605 18.4134C14.0703 18.2549 14.0436 18.0962 13.9819 17.9466H15.255L13.198 22.5443C13.1483 22.6551 13.1235 22.7729 13.125 22.8916V23.9914H12.5127ZM14.0625 23.1854H16.4062C16.5068 23.1855 16.6046 23.2133 16.6853 23.2649C16.766 23.3164 16.8253 23.3889 16.8545 23.4716C16.8836 23.5543 16.881 23.6429 16.8471 23.7242C16.8132 23.8056 16.7498 23.8755 16.6662 23.9235C16.5484 23.9679 16.4212 23.991 16.2926 23.9914H14.0625V23.1854ZM17.7001 23.1149C17.6069 22.9274 17.4601 22.7631 17.2735 22.6373C17.0868 22.5115 16.8662 22.4281 16.6322 22.395L18.5735 18.3771C18.746 18.02 18.8133 17.6319 18.7695 17.247C18.7258 16.8622 18.5722 16.4926 18.3225 16.171C18.0728 15.8494 17.7347 15.5858 17.338 15.4034C16.9414 15.2211 16.4986 15.1257 16.0488 15.1257H14.0625V14.4867L14.1998 14.6047C14.2433 14.6421 14.295 14.6718 14.3519 14.692C14.4087 14.7123 14.4697 14.7227 14.5312 14.7227H19.2994C19.2243 14.9051 19.2012 15.1002 19.232 15.2918C19.2629 15.4834 19.3468 15.6659 19.4767 15.8238C19.6066 15.9817 19.7786 16.1106 19.9785 16.1995C20.1783 16.2884 20.4 16.3347 20.625 16.3347H20.6263C20.3207 16.6829 20.1557 17.1074 20.1562 17.5436V20.6698C20.1555 20.8834 20.0569 21.0882 19.8816 21.2396L17.7001 23.1149ZM20.625 15.5287C20.5323 15.5287 20.4417 15.5051 20.3646 15.4608C20.2875 15.4165 20.2274 15.3536 20.1919 15.2799C20.1565 15.2063 20.1472 15.1253 20.1653 15.0471C20.1833 14.9689 20.228 14.8971 20.2935 14.8407C20.3591 14.7844 20.4426 14.746 20.5336 14.7305C20.6245 14.7149 20.7187 14.7229 20.8044 14.7534C20.89 14.7839 20.9632 14.8355 21.0147 14.9018C21.0663 14.9681 21.0937 15.046 21.0937 15.1257C21.0936 15.2325 21.0442 15.335 20.9563 15.4105C20.8684 15.4861 20.7493 15.5286 20.625 15.5287ZM23.9062 13.5138V15.5287H22.9687V13.6392C23.147 13.5572 23.346 13.5141 23.5482 13.5138H23.9062ZM22.0312 15.1257C22.0313 14.9323 21.9774 14.7417 21.874 14.5699C21.7706 14.3981 21.6207 14.2501 21.437 14.1385C21.2533 14.0268 21.0411 13.9547 20.8182 13.9282C20.5954 13.9016 20.3683 13.9215 20.1562 13.9861V13.2669L22.0312 13.8042V15.1257ZM15.4687 13.1108H19.2187V13.9167H14.7254L12.0502 11.6169L11.3873 12.1868L13.125 13.6806V15.1257H10.3125V10.2899H12.4406L15.1129 12.9701C15.1569 13.0142 15.2115 13.0496 15.2729 13.0739C15.3343 13.0982 15.4011 13.1108 15.4687 13.1108ZM10.1058 5.58141C10.5343 5.17435 11.103 5.05109 11.7187 5.05109C12.1343 5.05154 12.538 5.17046 12.8665 5.38922C13.1951 5.60799 13.43 5.91424 13.5345 6.26004H11.7187C11.5944 6.26004 11.4752 6.3025 11.3873 6.37807C11.2994 6.45365 11.25 6.55615 11.25 6.66302V7.62011C11.2493 7.78771 11.1739 7.94869 11.0393 8.06993C10.9047 8.19116 10.7211 8.26341 10.5264 8.2718C10.3317 8.28019 10.1407 8.22409 9.99265 8.11504C9.84462 8.00599 9.75086 7.85229 9.73066 7.6856L9.63035 6.82361C9.60288 6.59943 9.63106 6.37278 9.71303 6.15864C9.79499 5.94451 9.92888 5.74777 10.1058 5.58141ZM10.4883 9.08093C10.9388 9.08053 11.3707 8.9265 11.6893 8.65263C12.0079 8.37876 12.187 8.00742 12.1875 7.62011V7.06601H13.125C13.125 7.14558 13.1524 7.22337 13.2037 7.28957L13.8467 8.11881L13.3838 8.31768C13.306 8.35117 13.2406 8.40261 13.1949 8.46624C13.1492 8.52986 13.125 8.60317 13.125 8.67795V9.08093C13.1249 9.18777 13.0754 9.29021 12.9876 9.36575C12.8997 9.4413 12.7805 9.4838 12.6562 9.48392H10.3125V9.07302C10.3709 9.07823 10.4296 9.08086 10.4883 9.08093ZM10.3125 16.3347V15.9317H16.0488C16.3444 15.9317 16.6353 15.9944 16.8959 16.1142C17.1565 16.234 17.3787 16.4073 17.5428 16.6186C17.7068 16.8299 17.8077 17.0728 17.8364 17.3256C17.8652 17.5785 17.8209 17.8336 17.7076 18.0682L15.6246 22.3794H14.2762L16.375 17.6883C16.4023 17.6272 16.4119 17.5614 16.403 17.4964C16.3941 17.4315 16.367 17.3694 16.3239 17.3155C16.2808 17.2615 16.2232 17.2175 16.1558 17.187C16.0885 17.1565 16.0136 17.1406 15.9375 17.1406H11.25C11.0014 17.1404 10.7632 17.0554 10.5874 16.9043C10.4117 16.7532 10.3128 16.5483 10.3125 16.3347ZM8.90625 17.9466H12.6562C12.7806 17.9466 12.8998 17.9891 12.9877 18.0646C13.0756 18.1402 13.125 18.2427 13.125 18.3496C13.125 18.4565 13.0756 18.559 12.9877 18.6345C12.8998 18.7101 12.7806 18.7526 12.6562 18.7526H8.90625C8.78193 18.7526 8.6627 18.7101 8.57479 18.6345C8.48689 18.559 8.4375 18.4565 8.4375 18.3496C8.4375 18.2427 8.48689 18.1402 8.57479 18.0646C8.6627 17.9891 8.78193 17.9466 8.90625 17.9466ZM0.9375 12.3048V11.9018C0.93764 11.795 0.98707 11.6926 1.07495 11.617C1.16283 11.5415 1.28197 11.499 1.40625 11.4988H7.03125C7.15553 11.499 7.27467 11.5415 7.36255 11.617C7.45043 11.6926 7.49986 11.795 7.5 11.9018V12.3048H0.9375ZM0.9375 17.9466H7.5V18.7526H5.66725L0.9375 18.0132V17.9466ZM2.45449 21.5735C2.25102 21.7155 2.05752 21.8677 1.875 22.0294V21.5735H2.45449ZM6.09375 27.6182C5.60058 27.6163 5.11654 27.5038 4.68947 27.2918C4.2624 27.0797 3.9071 26.7755 3.65871 26.4093H4.85473C5.19679 26.6689 5.63741 26.8123 6.09375 26.8123C6.55009 26.8123 6.99071 26.6689 7.33277 26.4093H8.52879C8.2804 26.7755 7.9251 27.0797 7.49803 27.2918C7.07096 27.5038 6.58691 27.6163 6.09375 27.6182ZM18.4922 25.2079C18.3603 25.3324 18.1996 25.4319 18.0204 25.4999C17.8412 25.568 17.6475 25.6032 17.4516 25.6033H0.956895C1.0577 24.5512 1.55037 23.5551 2.36179 22.7628C3.17321 21.9705 4.26014 21.4242 5.46129 21.2049C5.58246 21.1823 5.70608 21.1707 5.83008 21.1705H8.90625V20.3645H6.09375V19.5585H13.0254C12.946 19.7118 12.8226 19.8452 12.6668 19.9463C12.511 20.0473 12.328 20.1128 12.1348 20.1364C11.4989 20.215 10.9172 20.4877 10.4959 20.9047C10.0423 21.3537 9.84375 21.9155 9.84375 22.5028C9.84334 23.0489 10.0705 23.5769 10.4841 23.9914H6.5625V24.7973H16.2926C16.7891 24.7942 17.2647 24.6248 17.6184 24.3252L20.5445 21.8096C20.895 21.5066 21.0923 21.097 21.0937 20.6698V17.5436C21.0941 17.2937 21.1844 17.0499 21.3522 16.8458C21.5201 16.6418 21.7573 16.4873 22.0312 16.4037V17.9466C22.0321 18.5178 22.2678 19.0704 22.6967 19.5067C23.1255 19.943 23.72 20.2349 24.375 20.3309V21.1705C24.084 21.1705 23.7862 21.1554 23.4969 21.1878C22.62 21.2626 21.7922 21.5711 21.1292 22.0701C20.4662 22.5692 20.0012 23.2338 19.7992 23.9712L18.4922 25.2079ZM24.1571 24.3943H24.1809L24.7467 24.8808C24.845 24.9657 24.9003 25.0805 24.9006 25.2003C24.9006 25.2897 24.8698 25.3771 24.812 25.4514C24.7543 25.5257 24.6722 25.5836 24.5761 25.6178C24.4801 25.652 24.3744 25.6609 24.2725 25.6435C24.1705 25.6261 24.0768 25.583 24.0033 25.5198L23.5719 25.149L24.1571 24.3943ZM24.375 27.6182C23.9688 27.6171 23.5677 27.5408 23.1989 27.3945C22.8301 27.2482 22.5023 27.0353 22.2378 26.7703C22.312 26.7392 22.3753 26.6918 22.4212 26.6328L22.8277 26.1089C23.0534 26.3935 23.3792 26.6084 23.7574 26.7221C24.1356 26.8358 24.5462 26.8423 24.929 26.7407C25.3118 26.6391 25.6466 26.4346 25.8844 26.1574C26.1221 25.8802 26.2503 25.5447 26.25 25.2003C26.2507 24.9615 26.1888 24.7257 26.069 24.5102C26.0471 24.4706 26.0231 24.4322 25.9977 24.3943H27.0272C27.1769 24.7591 27.2226 25.1494 27.1606 25.5324C27.0986 25.9155 26.9307 26.2802 26.6709 26.596C26.4112 26.9117 26.0671 27.1694 25.6676 27.3472C25.2681 27.5251 24.8249 27.618 24.375 27.6182Z" fill="url(#paint0_linear_19731_42)"/>
<ellipse opacity="0.15" cx="19.5625" cy="10.9348" rx="12.5" ry="10.9348" fill="url(#paint1_linear_19731_42)"/>
<defs>
<linearGradient id="paint0_linear_19731_42" x1="-1.50788e-07" y1="15.5287" x2="27.4507" y2="15.6711" gradientUnits="userSpaceOnUse">
<stop stop-color="#47C2FF"/>
<stop offset="1" stop-color="#1CB4FF" stop-opacity="0.71"/>
</linearGradient>
<linearGradient id="paint1_linear_19731_42" x1="7.0625" y1="10.2058" x2="31.4632" y2="10.3303" gradientUnits="userSpaceOnUse">
<stop stop-color="#47C2FF"/>
<stop offset="1" stop-color="#63CBFE"/>
</linearGradient>
</defs>
</svg>
