<svg width="39" height="39" viewBox="0 0 39 39" fill="none" xmlns="http://www.w3.org/2000/svg">
<circle cx="19.5" cy="19.5" r="19.5" fill="#EEEEEF"/>
<path d="M18.9844 16.7617C17.1941 16.7617 15.7331 18.2228 15.7331 20.0131C15.7331 21.8034 17.1941 23.2645 18.9844 23.2645C20.7748 23.2645 22.2358 21.8034 22.2358 20.0131C22.2358 18.2228 20.7748 16.7617 18.9844 16.7617ZM28.7362 20.0131C28.7362 18.6667 28.7484 17.3325 28.6727 15.9885C28.5971 14.4275 28.241 13.042 27.0995 11.9005C25.9555 10.7565 24.5725 10.4029 23.0115 10.3272C21.6651 10.2516 20.3308 10.2638 18.9869 10.2638C17.6405 10.2638 16.3063 10.2516 14.9623 10.3272C13.4012 10.4029 12.0158 10.759 10.8743 11.9005C9.73031 13.0445 9.37663 14.4275 9.30102 15.9885C9.22541 17.3349 9.2376 18.6691 9.2376 20.0131C9.2376 21.3571 9.22541 22.6937 9.30102 24.0377C9.37663 25.5987 9.73275 26.9842 10.8743 28.1257C12.0182 29.2697 13.4012 29.6233 14.9623 29.699C16.3087 29.7746 17.6429 29.7624 18.9869 29.7624C20.3333 29.7624 21.6675 29.7746 23.0115 29.699C24.5725 29.6233 25.958 29.2672 27.0995 28.1257C28.2434 26.9817 28.5971 25.5987 28.6727 24.0377C28.7508 22.6937 28.7362 21.3595 28.7362 20.0131ZM18.9844 25.0158C16.216 25.0158 13.9817 22.7815 13.9817 20.0131C13.9817 17.2447 16.216 15.0104 18.9844 15.0104C21.7529 15.0104 23.9871 17.2447 23.9871 20.0131C23.9871 22.7815 21.7529 25.0158 18.9844 25.0158ZM24.192 15.9739C23.5456 15.9739 23.0237 15.4519 23.0237 14.8055C23.0237 14.1591 23.5456 13.6372 24.192 13.6372C24.8384 13.6372 25.3604 14.1591 25.3604 14.8055C25.3606 14.959 25.3305 15.111 25.2718 15.2529C25.2132 15.3947 25.1271 15.5236 25.0186 15.6321C24.9101 15.7406 24.7812 15.8267 24.6394 15.8853C24.4975 15.944 24.3455 15.9741 24.192 15.9739Z" fill="#363853"/>
</svg>
