<svg width="39" height="39" viewBox="0 0 39 39" fill="none" xmlns="http://www.w3.org/2000/svg">
<circle cx="19.5" cy="19.5" r="19.5" fill="#EEEEEF"/>
<path d="M11.2896 16.5997C11.2896 15.7123 11.4447 14.8739 11.7504 14.0914C12.0425 13.3313 12.4764 12.6338 13.0291 12.0359C13.5806 11.4458 14.2118 10.9356 14.9043 10.5199C15.6149 10.0901 16.3841 9.76579 17.188 9.55722C18.0015 9.3436 18.8392 9.23586 19.6803 9.23669C20.9795 9.23669 22.1886 9.51159 23.3099 10.0591C24.4166 10.5966 25.3585 11.4216 26.0373 12.4477C26.7376 13.4914 27.0855 14.672 27.0855 15.9883C27.0855 16.7776 27.008 17.5499 26.8494 18.305C26.6937 19.0597 26.4463 19.7925 26.1125 20.4871C25.7944 21.1595 25.3785 21.781 24.8783 22.3316C24.3756 22.8733 23.7668 23.3059 23.0898 23.6023C22.3547 23.9244 21.5596 24.0865 20.7571 24.0779C20.1993 24.0779 19.6427 23.9467 19.0929 23.6832C18.5431 23.4209 18.1484 23.0604 17.9111 22.5985C17.8279 22.919 17.7138 23.3821 17.5621 23.9878C17.4161 24.5924 17.318 24.9825 17.2746 25.1593C17.229 25.3349 17.1446 25.6281 17.0214 26.0342C16.9379 26.3345 16.8307 26.6279 16.7009 26.9113L16.3085 27.6801C16.1388 28.01 15.9491 28.3293 15.7404 28.636C15.534 28.9349 15.2785 29.2919 14.9739 29.7025L14.804 29.763L14.691 29.6398C14.569 28.3474 14.5062 27.5741 14.5062 27.3186C14.5062 26.5623 14.5964 25.7136 14.7743 24.7714C14.9488 23.8304 15.2249 22.6475 15.5956 21.2251C15.9663 19.8038 16.1785 18.9677 16.2355 18.7202C15.9743 18.1875 15.842 17.4917 15.842 16.6362C15.842 15.9529 16.0553 15.313 16.483 14.7108C16.9119 14.1108 17.4537 13.8108 18.1108 13.8108C18.6138 13.8108 19.0039 13.9773 19.2834 14.3115C19.564 14.6446 19.7008 15.0644 19.7008 15.5765C19.7008 16.1195 19.5206 16.9054 19.1579 17.9331C18.7952 18.962 18.6149 19.7297 18.6149 20.2396C18.6149 20.7563 18.7997 21.1886 19.1693 21.5274C19.534 21.8663 20.0163 22.05 20.5141 22.0395C20.9658 22.0395 21.3845 21.9369 21.7734 21.7304C22.1563 21.53 22.4877 21.2439 22.7419 20.8943C23.2953 20.135 23.6899 19.2717 23.9019 18.3563C24.0114 17.875 24.0958 17.4176 24.1483 16.9875C24.2042 16.5552 24.2282 16.1469 24.2282 15.759C24.2282 14.3366 23.7764 13.2279 22.8787 12.434C21.9765 11.6401 20.8016 11.2454 19.3564 11.2454C17.7127 11.2454 16.3382 11.777 15.2374 12.8435C14.1355 13.9066 13.5812 15.2583 13.5812 16.8974C13.5812 17.259 13.6359 17.608 13.7397 17.9457C13.8412 18.2822 13.9519 18.5502 14.0716 18.7487C14.1903 18.9438 14.3021 19.1343 14.4036 19.3099C14.5062 19.4856 14.5599 19.6111 14.5599 19.6863C14.5599 19.9168 14.4994 20.2168 14.3773 20.5875C14.2507 20.9582 14.1013 21.143 13.9211 21.143C13.904 21.143 13.8333 21.1304 13.7101 21.1042C13.2834 20.9768 12.8981 20.7387 12.5933 20.4141C12.2699 20.0777 12.0146 19.6818 11.8416 19.2483C11.6692 18.8164 11.5348 18.3702 11.4401 17.9149C11.3378 17.484 11.2873 17.0425 11.2896 16.5997Z" fill="#363853"/>
</svg>
