<svg width="44" height="44" viewBox="0 0 44 44" fill="none" xmlns="http://www.w3.org/2000/svg">
<g clip-path="url(#clip0_19721_14)">
<path d="M41.7999 6.59977H40.3332V5.13307C40.3332 3.91809 39.3482 2.93307 38.1332 2.93307H36.3865L35.3253 0.810846C35.0787 0.312236 34.5697 -0.0024667 34.0134 -0.000232321H32.9999C32.1899 -0.000232321 31.5333 0.656416 31.5333 1.46646V2.93316H23.4666C22.2515 2.93316 21.2666 3.91809 21.2666 5.13316V6.59977H19.7999C18.585 6.59977 17.5999 7.58478 17.5999 8.79977V10.2665C17.5999 11.0765 18.2566 11.7332 19.0666 11.7332H19.1444L20.0024 19.3099L16.4692 18.4798C16.2909 18.2055 16.1025 17.9335 15.8928 17.6665L14.6461 12.3007C14.5691 11.9689 14.2739 11.7338 13.9333 11.7331H9.71956C7.73148 9.98115 5.38187 9.18915 3.6094 9.71053L2.53287 8.53723C2.12604 8.0931 1.48692 7.9471 0.927639 8.17053C0.367413 8.38641 -0.00160307 8.92541 -5.61906e-05 9.52577V41.8145C0.00157662 43.0207 0.97903 43.9981 2.18525 43.9998H38.1332C38.506 43.9995 38.8193 43.7197 38.8615 43.3493L42.4541 11.7331H42.5333C43.3434 11.7331 44 11.0764 44 10.2664V8.79977C43.9999 7.58478 43.015 6.59977 41.7999 6.59977ZM32.9999 1.46646H34.0134L34.7467 2.93316H32.9999V1.46646ZM22.7332 5.13307C22.7332 4.72805 23.0616 4.39977 23.4666 4.39977H38.1332C38.5383 4.39977 38.8666 4.72805 38.8666 5.13307V6.59977H22.7332V5.13307ZM20.6799 20.9731L20.7262 20.9818L21.3187 21.1226L21.7162 25.2843C20.5644 24.4689 19.1864 24.0345 17.7753 24.042C18.0469 22.7481 17.9031 21.4016 17.3646 20.1942L20.6799 20.9731ZM22.1129 27.4595L22.1224 27.4675C22.388 27.7133 22.6403 27.9733 22.8777 28.2463C23.7501 29.2198 24.3917 30.3776 24.7543 31.6335C24.8782 32.071 24.9421 32.5232 24.9442 32.9778L18.0949 25.508C19.6184 25.6786 21.0369 26.3675 22.1129 27.4595ZM14.385 18.1395V18.1381C15.9676 19.9568 16.7046 22.1414 16.3548 23.6095L8.89164 15.4732C10.3972 15.1365 12.6866 16.194 14.385 18.1395ZM13.3466 13.1998L13.9333 15.6968C13.344 15.2369 12.7017 14.8494 12.0201 14.5425C11.7429 14.0737 11.4329 13.625 11.0924 13.1998H13.3466ZM9.66018 13.7454H9.6631C9.72394 13.8151 9.77387 13.8921 9.83248 13.9654C9.14404 13.902 8.45087 14.0184 7.82094 14.3035L4.80617 11.0159C6.28026 11.0372 8.2038 12.0741 9.66018 13.7454ZM30.737 42.1024C30.6235 42.3635 30.366 42.5326 30.0812 42.5332H23.4666H2.18525C1.7883 42.5332 1.46655 42.2114 1.46655 41.8145L1.45332 9.53316L16.1721 25.5814V25.5851L24.8166 35.0092L24.8262 35.0202L29.5679 40.1916C29.5848 40.2136 29.6024 40.2356 29.6215 40.2568L30.6049 41.329C30.7987 41.5376 30.8506 41.8412 30.737 42.1024ZM26.1976 34.3447C26.3318 33.9068 26.4 33.4512 26.3999 32.9932C26.7852 33.3181 27.1442 33.6729 27.4736 34.0543C27.8832 34.5224 28.2469 35.0288 28.5596 35.5665C28.9879 36.2865 29.2906 37.0741 29.455 37.8955L26.1976 34.3447ZM37.4784 42.5332H32.1361C32.4108 41.7733 32.2366 40.9236 31.6851 40.3332L30.9466 39.5265C31.0915 38.2988 30.8935 37.0551 30.3746 35.9332H38.2286L37.4784 42.5332ZM38.3951 34.4665H29.5951C29.2941 33.9835 28.9568 33.5241 28.586 33.0922C27.8643 32.2544 27.0171 31.5338 26.0743 30.9559C25.6434 29.5972 24.931 28.3446 23.9836 27.2797C23.7636 27.0304 23.5436 26.7979 23.3126 26.5742L22.7333 20.4634C22.7035 20.1507 22.4779 19.8919 22.1723 19.8195L21.5226 19.6655L21.3686 18.3331H40.2292L38.3951 34.4665ZM40.3956 16.8665H21.2021L20.6213 11.7332H40.9786L40.3956 16.8665ZM42.5333 10.2665H19.0666V8.79977C19.0666 8.39474 19.3949 8.06646 19.7999 8.06646H41.7999C42.205 8.06646 42.5333 8.39474 42.5333 8.79977V10.2665Z" fill="#363853"/>
<path d="M31.1005 32.2667C31.1423 32.2667 31.1834 32.2608 31.2245 32.2594C31.2355 32.2594 31.2465 32.2667 31.2575 32.2667C31.2942 32.2644 31.3308 32.2593 31.3667 32.2513C32.5146 32.1738 33.5724 31.6017 34.2655 30.6834C35.1894 29.3853 35.4536 27.7299 34.9798 26.2087C34.8778 25.8288 34.7847 25.4563 34.6945 25.0962C34.1225 22.8031 33.5762 20.6404 31.2596 20.543C31.2361 20.543 31.2141 20.5386 31.1907 20.5386C31.1672 20.5386 31.1328 20.5334 31.1005 20.5334C28.5088 20.5334 26.3998 23.1654 26.3998 26.4001C26.3998 29.6349 28.5089 32.2667 31.1005 32.2667ZM31.6682 22.11C32.4264 22.4077 32.7601 23.4014 33.2719 25.451C33.3636 25.8177 33.4589 26.202 33.5652 26.5914C33.9163 27.6723 33.7447 28.8549 33.101 29.7916C32.8673 30.0981 32.5682 30.3486 32.2254 30.5249C32.2006 29.2643 31.9523 28.0181 31.4921 26.8443C31.4188 26.6155 31.3454 26.3947 31.2808 26.1843C30.8542 24.7962 31.3542 22.9973 31.6682 22.11ZM30.0922 22.22C29.6149 23.6363 29.5415 25.1577 29.8802 26.6134C29.9477 26.8334 30.0225 27.0614 30.1002 27.2983C30.4669 28.4174 30.9069 29.7704 30.7272 30.7662C29.1198 30.5154 27.8665 28.6542 27.8665 26.4C27.8665 24.453 28.8015 22.8 30.0922 22.22Z" fill="#363853"/>
<path d="M3.88139 38.563L3.36293 39.0815C3.17232 39.2657 3.09584 39.5383 3.16296 39.7947C3.23007 40.0511 3.43031 40.2514 3.68666 40.3184C3.9431 40.3855 4.21569 40.309 4.39985 40.1184L4.91831 39.6C5.19624 39.3122 5.19228 38.8548 4.90938 38.572C4.62656 38.2891 4.16911 38.2851 3.88139 38.563Z" fill="#363853"/>
<path d="M10.8929 33.6261C11.1794 33.3396 11.1794 32.875 10.8929 32.5884C10.6064 32.3019 10.1418 32.3019 9.85518 32.5884L9.33672 33.1069C9.15135 33.2921 9.07891 33.5622 9.14663 33.8153C9.21434 34.0684 9.412 34.2662 9.66509 34.3341C9.91817 34.402 10.1883 34.3297 10.3736 34.1445L10.8929 33.6261Z" fill="#363853"/>
<path d="M4.39992 31.7481L3.88146 32.2666C3.69085 32.4507 3.61436 32.7233 3.68148 32.9798C3.7486 33.2361 3.94883 33.4363 4.20518 33.5035C4.46162 33.5706 4.73421 33.4941 4.91838 33.3035L5.43684 32.785C5.71476 32.4973 5.71081 32.0399 5.4279 31.757C5.14508 31.4741 4.68764 31.4702 4.39992 31.7481Z" fill="#363853"/>
<path d="M4.39992 26.6147L3.88146 27.1332C3.69085 27.3174 3.61436 27.59 3.68148 27.8464C3.7486 28.1027 3.94883 28.303 4.20518 28.3701C4.46162 28.4372 4.73421 28.3607 4.91838 28.1701L5.43684 27.6517C5.71476 27.3639 5.71081 26.9065 5.4279 26.6237C5.14508 26.3409 4.68764 26.3369 4.39992 26.6147Z" fill="#363853"/>
<path d="M11 38.563L10.4815 39.0815C10.2909 39.2657 10.2144 39.5383 10.2815 39.7947C10.3487 40.0511 10.5489 40.2514 10.8053 40.3184C11.0617 40.3855 11.3343 40.309 11.5184 40.1184L12.0369 39.6C12.3148 39.3122 12.3109 38.8548 12.028 38.572C11.7451 38.2891 11.2877 38.2851 11 38.563Z" fill="#363853"/>
<path d="M16.3481 38.563L15.8297 39.0815C15.639 39.2656 15.5626 39.5382 15.6297 39.7947C15.6968 40.0511 15.897 40.2513 16.1534 40.3184C16.4098 40.3855 16.6824 40.309 16.8666 40.1184L17.385 39.5999C17.663 39.3122 17.659 38.8548 17.3761 38.572C17.0932 38.2891 16.6358 38.2851 16.3481 38.563Z" fill="#363853"/>
</g>
<defs>
<clipPath id="clip0_19721_14">
<rect width="44" height="44" fill="white"/>
</clipPath>
</defs>
</svg>
