<svg width="39" height="39" viewBox="0 0 39 39" fill="none" xmlns="http://www.w3.org/2000/svg">
<circle cx="19.5" cy="19.5" r="19.5" fill="#EEEEEF"/>
<path d="M29.7632 13.2704C29.0084 13.596 28.1869 13.8303 27.3408 13.9216C28.2192 13.3997 28.8771 12.5752 29.1909 11.6028C28.3666 12.0932 27.4635 12.437 26.5218 12.6191C26.1282 12.1984 25.6522 11.8632 25.1234 11.6344C24.5946 11.4057 24.0243 11.2883 23.4482 11.2895C21.117 11.2895 19.2423 13.1791 19.2423 15.4979C19.2423 15.8235 19.2817 16.1491 19.3459 16.4624C15.8553 16.2799 12.7422 14.6123 10.6726 12.0592C10.2954 12.7033 10.0978 13.4367 10.1003 14.1831C10.1003 15.6434 10.8428 16.9311 11.975 17.6884C11.3078 17.6622 10.6561 17.4787 10.0731 17.1531V17.2049C10.0731 19.2499 11.5187 20.9446 13.4453 21.3344C13.0835 21.4283 12.7114 21.4764 12.3377 21.4775C12.0638 21.4775 11.8048 21.4503 11.5433 21.4133C12.0762 23.0809 13.6278 24.2921 15.4754 24.3315C14.0299 25.4638 12.2192 26.1299 10.2532 26.1299C9.90045 26.1299 9.57483 26.1175 9.23688 26.078C11.1018 27.2745 13.3145 27.9652 15.6974 27.9652C23.4334 27.9652 27.6664 21.5564 27.6664 15.9937C27.6664 15.8112 27.6664 15.6286 27.6541 15.4461C28.4731 14.8467 29.1909 14.1042 29.7632 13.2704Z" fill="#363853"/>
</svg>
