<svg width="117" height="16" viewBox="0 0 117 16" fill="none" xmlns="http://www.w3.org/2000/svg">
<path fill-rule="evenodd" clip-rule="evenodd" d="M107.79 0.505409L109.878 4.19069C110.031 4.45769 110.325 4.64311 110.663 4.68431L115.352 5.28424C115.626 5.31803 115.874 5.44493 116.042 5.63859C116.208 5.82978 116.279 6.07206 116.239 6.31022C116.206 6.50799 116.1 6.69094 115.938 6.83103L112.541 9.72437C112.292 9.92627 112.18 10.2254 112.24 10.518L113.076 14.5856C113.165 15.0768 112.795 15.5399 112.24 15.633C112.011 15.6652 111.776 15.6314 111.57 15.5391L107.388 13.6247C107.225 13.5523 107.046 13.518 106.868 13.5218V13.5221C106.74 13.5256 106.615 13.5478 106.496 13.5873C106.464 13.5984 106.432 13.6109 106.401 13.6247L105.209 14.17L102.188 15.5566C102.037 15.62 101.877 15.65 101.719 15.6495C101.395 15.6504 101.079 15.5217 100.872 15.2891C100.84 15.2539 100.811 15.2164 100.784 15.1765C100.738 15.1005 100.705 15.0196 100.685 14.9363C100.657 14.8246 100.653 14.7088 100.673 14.5947L101.51 10.5262L101.512 10.5113C101.554 10.2273 101.441 9.94226 101.206 9.74253L97.8074 6.85159C97.601 6.67397 97.4982 6.43804 97.5 6.20238C97.4983 5.97768 97.5927 5.75232 97.7841 5.57761L97.8113 5.55371C97.9726 5.4095 98.1845 5.31803 98.4133 5.29413L103.102 4.69337C103.323 4.66582 103.526 4.57732 103.682 4.44392C103.761 4.37483 103.827 4.29401 103.877 4.20383L105.916 0.463817C106.102 0.175257 106.45 -0.00170171 106.824 1.23399e-05C106.834 -3.26828e-05 106.844 4.57586e-05 106.854 0.000248949H106.979C107.329 0.0373325 107.634 0.227695 107.79 0.505409ZM85.794 4.19069L83.9386 0.505409C83.7994 0.227695 83.5285 0.0373325 83.2176 0.000248949H83.1059C83.0971 4.57556e-05 83.0883 -3.26851e-05 83.0795 1.23419e-05C82.7471 -0.00170185 82.4377 0.175257 82.273 0.463817L80.46 4.20383C80.4156 4.29402 80.3568 4.37486 80.287 4.44396C80.1477 4.57734 79.9678 4.66582 79.771 4.69337L75.6035 5.29413C75.4001 5.31803 75.2117 5.4095 75.0684 5.55371L75.0442 5.57761C74.874 5.75236 74.7902 5.97777 74.7917 6.20252C74.7901 6.43813 74.8815 6.674 75.065 6.85159L78.0861 9.74253C78.2949 9.94227 78.3953 10.2274 78.3583 10.5113L78.3557 10.5262L77.6122 14.5947C77.5944 14.7089 77.5981 14.8248 77.6227 14.9366C77.6405 15.0198 77.67 15.1006 77.7109 15.1765C77.7344 15.2162 77.7605 15.2537 77.7887 15.2888C77.9728 15.5216 78.2535 15.6504 78.5418 15.6495C78.6821 15.65 78.8245 15.62 78.959 15.5566L81.644 14.1703L82.7033 13.6247C82.7311 13.6109 82.7594 13.5984 82.7881 13.5873C82.8935 13.5478 83.0049 13.5256 83.1184 13.5221V13.5218C83.2767 13.518 83.4358 13.5523 83.581 13.6247L87.2985 15.5391C87.4819 15.6314 87.6902 15.6652 87.8936 15.633C88.3871 15.5399 88.7163 15.0768 88.6371 14.5856L87.8936 10.518C87.8403 10.2254 87.9403 9.92627 88.1612 9.72437L91.181 6.83103C91.3252 6.69094 91.4194 6.50799 91.4485 6.31022C91.4844 6.07206 91.421 5.82978 91.2735 5.63859C91.1243 5.44493 90.9034 5.31803 90.6601 5.28424L86.4925 4.68431C86.1916 4.64311 85.9307 4.45769 85.794 4.19069ZM60.794 4.19069L58.9386 0.505409C58.7994 0.227695 58.5285 0.0373325 58.2176 0.000248949H58.1059C58.0971 4.57417e-05 58.0883 -3.26958e-05 58.0795 1.23511e-05C57.7471 -0.00170249 57.4377 0.175257 57.273 0.463817L55.46 4.20383C55.4156 4.29399 55.3568 4.3748 55.2871 4.44388C55.1477 4.57731 54.9678 4.66581 54.771 4.69337L50.6035 5.29413C50.4001 5.31803 50.2117 5.4095 50.0684 5.55371L50.0442 5.57761C49.874 5.75235 49.7902 5.97776 49.7917 6.20251C49.7901 6.43812 49.8815 6.674 50.065 6.85159L53.0861 9.74253C53.2949 9.94227 53.3953 10.2274 53.3583 10.5113L53.3557 10.5262L52.6122 14.5947C52.5944 14.7088 52.5981 14.8245 52.6226 14.9362C52.6404 15.0195 52.6699 15.1005 52.7109 15.1765C52.7345 15.2164 52.7606 15.2539 52.7889 15.2891C52.9731 15.5217 53.2536 15.6504 53.5418 15.6495C53.6821 15.65 53.8245 15.62 53.959 15.5566L56.6444 14.1701L57.7033 13.6247C57.7311 13.6109 57.7594 13.5984 57.7881 13.5873C57.8934 13.5478 58.0049 13.5256 58.1184 13.5221V13.5218C58.2767 13.518 58.4358 13.5523 58.581 13.6247L62.2985 15.5391C62.4819 15.6314 62.6902 15.6652 62.8936 15.633C63.3871 15.5399 63.7163 15.0768 63.6371 14.5856L62.8936 10.518C62.8403 10.2254 62.9403 9.92627 63.1612 9.72437L66.181 6.83103C66.3252 6.69094 66.4194 6.50799 66.4485 6.31022C66.4844 6.07206 66.421 5.82978 66.2735 5.63859C66.1243 5.44493 65.9034 5.31803 65.66 5.28424L61.4925 4.68431C61.1916 4.64311 60.9307 4.45769 60.794 4.19069ZM35.794 4.19069L33.9386 0.505409C33.7994 0.227695 33.5285 0.0373325 33.2176 0.000248949H33.1059C33.0971 4.57564e-05 33.0883 -3.26845e-05 33.0795 1.23414e-05C32.7471 -0.00170181 32.4377 0.175257 32.273 0.463817L30.46 4.20383C30.4156 4.294 30.3568 4.37482 30.287 4.44391C30.1477 4.57732 29.9678 4.66582 29.771 4.69337L25.6035 5.29413C25.4001 5.31803 25.2117 5.4095 25.0684 5.55371L25.0442 5.57761C24.874 5.75237 24.7902 5.97781 24.7917 6.20258C24.7901 6.43817 24.8815 6.67402 25.065 6.85159L28.0861 9.74253C28.2949 9.94225 28.3953 10.2273 28.3583 10.5113L28.3557 10.5262L27.6122 14.5947C27.5944 14.7088 27.5981 14.8245 27.6226 14.9361C27.6404 15.0195 27.6699 15.1004 27.7109 15.1765C27.7345 15.2163 27.7606 15.2539 27.7888 15.289C27.973 15.5217 28.2536 15.6504 28.5418 15.6495C28.6821 15.65 28.8245 15.62 28.959 15.5566L31.6433 14.1706L32.7033 13.6247C32.7312 13.6109 32.7595 13.5984 32.7882 13.5873C32.8935 13.5478 33.0049 13.5256 33.1184 13.5221V13.5218C33.2767 13.518 33.4358 13.5523 33.581 13.6247L37.2985 15.5391C37.4819 15.6314 37.6902 15.6652 37.8936 15.633C38.3871 15.5399 38.7163 15.0768 38.6371 14.5856L37.8936 10.518C37.8403 10.2254 37.9403 9.92627 38.1612 9.72437L41.181 6.83103C41.3252 6.69094 41.4194 6.50799 41.4485 6.31022C41.4844 6.07206 41.421 5.82978 41.2735 5.63859C41.1243 5.44493 40.9034 5.31803 40.66 5.28424L36.4925 4.68431C36.1916 4.64311 35.9307 4.45769 35.794 4.19069ZM12.3776 4.19069L10.2903 0.505409C10.1337 0.227695 9.82893 0.0373325 9.47917 0.000248949H9.35352C8.95031 -0.00799183 8.57898 0.188963 8.39988 0.505409L6.38757 4.19893C6.23285 4.46758 5.93935 4.65135 5.60178 4.69337L0.91327 5.29413C0.684471 5.31803 0.47255 5.4095 0.311266 5.55371L0.284072 5.57761C-0.105074 5.93279 -0.0928836 6.49728 0.311266 6.8401L3.70856 9.73179C3.95611 9.93369 4.06957 10.2345 4.00956 10.5262L3.17313 14.5947C3.13844 14.7916 3.17594 14.9935 3.2819 15.1707C3.5679 15.6157 4.2046 15.7789 4.71846 15.5391L8.90061 13.6247C9.21099 13.4871 9.57763 13.4871 9.88801 13.6247L14.0702 15.5391C14.2765 15.6314 14.5109 15.6652 14.7397 15.633C15.2948 15.5399 15.6652 15.0768 15.5761 14.5856L14.7397 10.518C14.6797 10.2254 14.7922 9.92627 15.0407 9.72437L18.438 6.83103C18.6002 6.69094 18.7062 6.50799 18.739 6.31022C18.7793 6.07206 18.708 5.82978 18.5421 5.63859C18.3742 5.44493 18.1257 5.31803 17.8519 5.28424L13.1634 4.68431C12.8249 4.64311 12.5314 4.45769 12.3776 4.19069Z" fill="#FAC412"/>
</svg>
